<svg width="438" height="505" viewBox="0 0 438 505" fill="none" xmlns="http://www.w3.org/2000/svg">
<path opacity="0.6" d="M161.777 430.282C164.17 431.578 166.621 432.288 169.137 432.694L163.996 432.507C171.394 429.087 177.604 422.711 187.944 420.875C201.517 418.465 204.628 422.154 219.578 417.158C219.805 417.082 220.032 417.007 220.26 416.933L218.209 417.747C226.7 412.533 235.878 408.691 242.742 405.329L243.316 405.045C247.267 403.461 250.491 401.972 252.484 400.386C258.14 395.882 261.035 400.527 269.617 395.357C270.198 395.007 270.766 394.672 271.322 394.352L273.867 393.039L277.202 394.451C285.501 397.529 290.38 400.727 296.941 405.77C297.698 406.351 298.643 407.022 299.739 407.758L295.51 407.726C303.302 405.282 316.677 399.904 325.898 395.07L325.067 395.624C327.606 393.118 329.697 390.816 331.007 388.965C334.036 384.681 338.451 381.362 342.761 378.623L343.745 377.628L345.594 377.559C350.098 378.413 354.221 379.549 357.366 380.026C359.437 380.34 361.064 380.749 362.31 381.166C362.838 381.343 363.076 381.698 363.071 382.044C363.071 382.044 363.071 382.044 363.071 382.044C363.063 382.475 362.675 382.892 361.992 382.934C358.677 383.14 353.718 383.75 347.846 385.209C346.991 385.422 346.196 385.598 345.449 385.743L348.255 384.689C342.998 391.966 339.697 391.408 330.567 401.539C330.543 401.566 330.519 401.592 330.496 401.618L329.343 402.386C318.796 408.74 312.361 414.294 300.925 419.224L297.05 420.796L294.149 419.173C291.99 418.025 289.729 416.712 287.321 415.18C280.766 411.01 275.716 409.797 270.364 408.416L277.687 408.539C272.115 412.555 266.044 416.761 252.644 419.985C251.83 420.181 251.045 420.38 250.287 420.583L250.845 420.307C238.332 424.664 233.511 429.401 227.562 435.035L225.316 435.927C220.339 438.793 214.718 441.959 205.459 444.888C194.339 448.407 181.464 451.018 169.516 453.24L165.062 454.168L162.132 452.973C151.563 448.393 141.88 443.987 134.729 441.395L138.251 441.979C137.104 441.966 136.025 441.974 135.022 442.004C123.707 442.349 109.401 443.063 93.9051 442.899L103.423 437.694C100.862 441.53 98.1779 445.412 95.3698 449.282C93.3656 452.044 91.379 454.973 89.3959 458.021L87.3289 460.863L85.1701 461.786C78.1736 465.218 70.9124 469.124 63.5133 473.022L59.6363 474.123C49.9475 475.298 40.0878 476.395 30.5197 476.764L32.3096 476.443C30.5695 476.803 28.8352 477.136 27.1089 477.439C8.47848 480.706 -16.4219 485.277 -33.0175 488.046L-31.2141 487.184C-34.3863 489.072 -37.2175 490.734 -39.5762 492.083C-48.2543 497.048 -52.5798 499.538 -57.7181 503.37L-58.615 503.953L-59.3746 503.915C-62.647 503.958 -66.2964 504.161 -71.1775 504.529C-79.4786 505.156 -90.9197 504.644 -100.591 502.504C-105.458 501.426 -104.362 499.894 -99.4709 499.143C-92.3181 498.044 -86.44 498.734 -82.7601 496.809C-75.4068 492.963 -72.281 491.486 -62.9691 493.669C-61.697 493.967 -60.5173 494.13 -59.4146 494.191L-63.46 495.522C-57.5947 491.739 -56.6228 486.451 -52.548 484.091C-49.164 482.132 -47.3395 482.839 -38.8748 476.714L-36.3552 475.509C-32.3643 474.469 -27.0229 472.812 -19.6492 470.177C2.86703 462.131 16.7214 457.712 26.4901 454.583L28.3792 454.244C29.9747 454.012 31.4654 453.794 32.8703 453.586C38.5301 452.745 47.6657 452.517 57.5398 452.067L53.7002 453.158C61.1478 449.924 69.0078 446.372 75.6976 442.611L71.4374 446.407C71.4651 446.359 71.4928 446.31 71.5205 446.262C74.6893 440.718 79.4087 433.239 84.4028 425.394L87.1183 420.643L93.812 420.248C109.335 420.073 126.132 419.981 134.849 418.99C136.049 418.854 137.146 418.754 138.156 418.686L142.335 419.379C152.693 422.244 152.597 425.311 161.777 430.282ZM200.022 157.82C202.122 156.09 203.701 154.085 205.023 151.905L206.379 150.169L209.391 149.187C216.789 145.767 222.999 139.391 233.338 137.555C246.912 135.145 250.023 138.834 264.973 133.838C265.2 133.762 265.427 133.687 265.654 133.613L267.839 133.3C277.772 132.51 287.693 133.256 295.336 133.378L294.697 133.417C298.946 133.169 302.477 132.781 304.87 131.909C311.664 129.434 312.933 134.759 322.713 132.58C323.375 132.433 324.02 132.296 324.649 132.169L319.597 135.178C323.801 127.389 327.648 123.002 333.555 117.208C334.236 116.54 335.032 115.697 335.914 114.715L336.981 112.936L339.566 112.584C347.719 113.041 362.132 112.717 372.465 111.438L373.461 111.505C376.975 112.118 380.064 112.485 382.331 112.476C387.578 112.457 392.843 114.125 397.575 116.044L394.588 116.53C398.865 114.879 402.967 113.669 405.891 112.415C407.816 111.59 409.414 111.079 410.692 110.776C411.234 110.648 411.624 110.824 411.801 111.121C411.801 111.121 411.802 111.121 411.802 111.121C412.022 111.491 411.913 112.05 411.355 112.446C408.648 114.37 404.756 117.504 400.537 121.841C399.923 122.473 399.34 123.042 398.782 123.558L397.16 124.409L395.825 124.039C386.848 123.982 385.386 120.971 371.836 119.417C371.801 119.413 371.766 119.409 371.731 119.405L373.113 119.499C361.004 121.732 353.025 124.665 340.586 125.253L346.438 121.839C345.001 123.818 343.386 125.874 341.534 128.045C336.491 133.955 334.587 138.788 332.473 143.895L329.744 147.486L326.18 147.643C319.621 149.681 312.529 151.743 298.799 150.545C297.965 150.473 297.157 150.412 296.374 150.364L295.752 150.402C282.626 148.601 276.18 150.632 268.32 152.95L270.711 152.607C265.733 155.474 260.113 158.64 250.854 161.569C239.733 165.087 226.859 167.699 214.91 169.921L221.184 166.017C212.968 174.091 205.247 181.409 200.158 187.061L197.392 189.319C196.386 189.87 195.45 190.405 194.59 190.924C184.896 196.77 172.775 204.402 159.187 211.853L153.114 214.873L148.341 212.07C144.274 209.895 140.149 207.602 136.024 205.185C133.079 203.46 129.97 201.768 126.744 200.092L132.282 201.258C124.503 201.715 116.296 202.507 107.965 203.238L111.876 202.266C103.095 206.525 94.1257 210.764 85.1965 214.222L83.4839 214.833C81.7438 215.193 80.0095 215.527 78.2832 215.829C59.6529 219.097 34.7524 223.668 18.1568 226.437L16.1634 226.585C12.5502 225.83 9.34092 225.139 6.69099 224.537C-3.05864 222.323 -7.92863 221.231 -14.3052 220.578L-12.597 220.227C-15.4282 221.868 -18.5102 223.833 -22.5844 226.546C-29.513 231.161 -39.737 236.322 -49.2163 239.195C-53.9869 240.641 -53.7829 238.768 -49.8872 235.716C-44.1905 231.253 -38.7284 228.974 -36.4639 225.493C-31.9392 218.537 -29.9381 215.718 -20.7512 213.057C-19.4962 212.694 -18.3881 212.258 -17.3972 211.77L-15.8344 210.766L-13.2254 210.913C-6.34704 212.095 -2.05397 208.858 2.54326 209.876C6.36113 210.722 7.2261 212.478 17.6041 213.692L14.8192 213.899C18.8101 212.859 24.1514 211.202 31.5251 208.567C54.0414 200.522 67.8957 196.102 77.6644 192.973L75.8568 193.619C77.2904 192.881 78.6295 192.191 79.8905 191.537C84.9703 188.903 93.5364 185.72 102.729 182.087L106.603 181.124C114.721 181.024 123.343 180.791 130.967 179.911L133.318 179.637L136.551 181.086C136.602 181.109 136.652 181.132 136.703 181.155C142.529 183.768 150.433 187.735 158.728 191.94L148.006 192.154C161.451 184.394 176.048 176.082 183.161 170.947C184.14 170.24 185.047 169.616 185.894 169.062L182.613 171.741C189.16 163.218 191.966 164.459 200.022 157.82ZM116.939 378.168C118.559 379.343 120.239 380.252 121.973 380.982L117.557 380.053C125.416 378.955 132.459 374.66 141.576 373.227L136.718 374.435C138.526 373.4 140.484 372.464 142.649 371.679C152.744 368.022 157.56 368.577 165.095 366.224L166.587 365.691C169.637 365.27 173.168 364.48 177.718 362.984C193.931 357.651 211.175 356.15 218.046 352.465C223.296 349.649 225.801 351.926 231.199 351.399L233.695 351.213C235.306 351.666 237.27 351.97 239.826 351.97C249.901 351.969 256.15 353.203 264.342 355.624L260.837 356.344C261.449 356.127 262.074 355.909 262.714 355.689C270.291 353.083 289.644 343.585 300.514 336.403L301.749 335.978C304.249 335.435 306.411 334.856 308.069 334.252C318.166 330.572 330.592 332.535 337.865 332.362C340.131 332.308 341.937 332.426 343.338 332.618C343.931 332.7 344.245 333.008 344.295 333.351C344.295 333.351 344.295 333.351 344.295 333.351C344.358 333.778 344.013 334.257 343.29 334.419C339.781 335.204 334.58 336.677 328.545 339.147C318.039 343.448 315.819 341.122 302.918 343.894L304.464 343.361C303.679 343.877 302.852 344.437 301.98 345.047C289.553 353.73 282.75 360.764 267.406 367.917L264.892 369.181L262.864 368.85C261.929 368.669 260.973 368.472 259.991 368.259C248.131 365.68 241.758 367.898 231.841 367.805L235.494 367.533C230.36 369.478 223.956 371.157 214.418 372.004C191.936 374 187.974 380.599 172.348 387.328L174.34 386.617C171.612 388.372 168.468 390.203 164.694 392.111C159.504 394.737 153.891 397.245 148.141 399.633L143.277 400.842C135.079 401.084 126.732 401.049 118.846 400.964L114.786 401.008L112.366 399.6C104.521 394.805 97.2481 390.271 91.1905 386.804L101.473 386.599C98.6909 388.022 96.221 389.358 94.1554 390.598C85.4492 395.824 74.9304 402.359 63.2177 409.045L66.1866 406.622C61.1721 412.392 55.8115 418.335 50.1412 424.214C48.8054 425.599 47.4658 427.032 46.1218 428.505L43.4739 431.244L40.8071 431.811C23.3172 436.062 3.69112 442.837 -15.4746 447.319L-18.0868 447.693C-21.8076 447.671 -25.4933 447.573 -29.1192 447.372C-34.2633 447.086 -39.8464 446.789 -45.6114 446.485L-44.9202 446.443C-54.8213 446.656 -65.2575 446.892 -74.9328 447.083L-69.8095 444.031C-76.0682 451.866 -81.8422 459.04 -86.2678 464.399L-87.8025 466.436L-89.8655 466.497C-91.2471 466.476 -92.5393 466.452 -93.7309 466.425C-107.405 466.108 -112.423 466.013 -122.789 467.328L-123.671 467.269C-125.678 466.925 -127.896 466.573 -130.425 466.191C-135.504 465.425 -141.58 464.058 -147.672 462.215L-145.351 461.838C-149.658 463.971 -154.157 465.913 -158.504 467.414C-163.589 469.171 -163.348 467.247 -159.17 463.903C-155.258 460.772 -151.461 458.56 -148.592 456.407L-147.695 455.808L-146.32 456.037C-144.315 456.258 -142.537 456.292 -140.986 455.928C-133.003 454.055 -129.304 453.313 -121.347 456.657L-123.66 456.5C-122.982 456.57 -122.27 456.656 -121.522 456.759C-111.3 458.164 -106.972 452.752 -101.071 452.86C-97.8592 452.919 -96.3531 453.827 -90.88 453.888L-96.7429 457.308C-93.8366 453.761 -89.6537 447.671 -82.8876 435.811C-82.8006 435.658 -82.7138 435.506 -82.6272 435.354L-80.7969 432.332L-76.4571 431.679C-64.6278 429.588 -54.9461 427.986 -46.8728 426.71L-46.0967 426.663C-34.1567 425.675 -25.7152 425.13 -19.0409 424.642C-18.9128 424.632 -18.7832 424.623 -18.6519 424.614L-21.4136 425.01C-10.4654 421.604 12.6888 418.043 30.0623 412.463C31.6428 411.956 33.3759 411.423 35.2317 410.869L29.7972 414.25C35.1231 407.769 42.1396 399.677 49.0505 391.658L51.9877 389.26C64.2419 382.199 76.2756 375.196 82.7212 370.624C85.5952 368.585 87.8922 367.175 89.8695 366.156L95.1252 362.811L101.969 365.915C108.368 369.552 109.264 372.599 116.939 378.168ZM185.529 227.322C186.857 225.824 187.925 224.24 188.821 222.587L189.775 220.934L192.19 219.585C199.011 215.531 203.843 208.846 211.697 203.997L216.512 202.629C218.558 202.237 220.714 201.988 223.017 201.95C233.752 201.77 238.127 203.859 246.018 204.081L244.458 204.361C247.508 203.94 251.039 203.15 255.589 201.654C271.802 196.321 289.046 194.82 295.916 191.135C301.167 188.319 303.671 190.596 309.07 190.069L306.811 191.148C308.304 190.393 309.956 189.288 311.839 187.559C319.259 180.743 324.696 177.425 332.367 173.666L333.597 172.667L335.766 172.548C336.405 172.659 337.057 172.776 337.722 172.897C345.605 174.339 367.129 175.543 380.124 174.61L378.842 174.855C381.155 173.763 383.131 172.712 384.61 171.75C393.619 165.89 406.168 165.005 413.216 163.198C415.411 162.635 417.197 162.342 418.605 162.215C419.201 162.161 419.576 162.39 419.703 162.713C419.703 162.713 419.703 162.713 419.703 162.713C419.86 163.114 419.632 163.659 418.964 163.98C415.722 165.535 410.987 168.141 405.663 171.908C396.396 178.464 393.709 176.698 381.763 182.304L380.157 182.611C379.22 182.676 378.225 182.759 377.165 182.863C362.078 184.342 352.701 187.139 335.82 185.856L340.225 184.407C339.414 184.906 338.576 185.408 337.709 185.915C327.23 192.038 324.036 197.983 316.67 204.623L313.365 206.203C308.23 208.148 301.827 209.827 292.288 210.674C269.807 212.67 265.845 219.269 250.218 225.998L248.136 226.371C244.987 227.146 241.418 227.855 237.229 228.435C231.467 229.232 225.344 229.78 219.13 230.171L223.95 228.802C216.485 232.198 208.775 235.395 201.469 238.369L206.413 233.964C200.875 241.303 195.654 248.099 191.613 253.79L187.878 258.97L182.589 258.724C179.467 258.601 176.659 258.556 174.251 258.624C164.101 258.913 151.729 259.455 138.243 259.543L134.462 258.917C127.23 256.438 119.708 253.703 112.13 250.657C110.344 249.94 108.513 249.237 106.643 248.545L112.898 248.771C95.4084 253.022 75.7823 259.797 56.6166 264.279L59.0692 263.305C55.7441 264.975 52.4159 266.561 49.0941 268.028C44.3812 270.11 39.2721 272.381 33.9982 274.729L33.3773 275.035C24.0565 278.382 14.2352 281.919 5.12091 285.171L1.72498 286.493L-0.841474 285.071C-9.47117 279.965 -17.3803 275.246 -23.303 271.61L-19.1382 271.642C-20.4387 272.109 -21.6566 272.542 -22.7815 272.936C-35.6914 277.453 -40.4215 279.131 -49.6609 284.012L-48.9255 283.522C-50.3708 284.957 -51.9446 286.559 -53.7235 288.397C-57.2954 292.087 -61.9356 296.241 -66.9728 300.132L-68.0756 301.034L-69.1744 300.959C-73.9582 300.499 -78.8048 299.776 -83.29 298.758C-88.537 297.568 -87.3167 296.061 -82.0031 295.424C-77.0288 294.827 -72.6364 294.951 -69.0628 294.635L-71.2183 295.444C-69.8749 293.94 -68.8154 292.512 -68.2112 291.038C-65.1023 283.451 -63.559 280.007 -56.2176 275.47L-54.2888 274.184C-53.6293 274.01 -52.9332 273.84 -52.1962 273.673C-42.134 271.39 -39.9888 264.801 -34.4272 262.824C-31.4006 261.748 -29.6713 262.068 -24.5272 260.198L-21.5605 258.613L-17.7402 260.25C-13.8236 262.634 -7.20987 265.927 5.47721 270.976C5.6404 271.041 5.80314 271.105 5.96545 271.17L-1.21511 271.049C9.33783 265.31 18.01 260.717 25.2605 256.944L24.5634 257.288C34.7526 250.986 42.0262 246.667 47.7504 243.201C47.8603 243.134 47.9717 243.067 48.0847 243L50.6776 241.97C61.6258 238.564 84.78 235.003 102.153 229.423C103.734 228.916 105.467 228.382 107.323 227.828L109.977 226.976L113.719 228.06C121.727 230.561 131.862 234.023 141.89 237.414L138.149 236.794C152.292 236.644 166.213 236.437 174.072 235.61C177.576 235.241 180.27 235.137 182.493 235.218L171.875 241.025C176.118 235.012 179.238 234.417 185.529 227.322ZM206.396 65.1147C207.723 63.6173 208.791 62.0333 209.688 60.3796L210.641 58.7273L213.056 57.3783C219.878 53.3244 224.71 46.639 232.563 41.79L237.378 40.422C239.424 40.0304 241.581 39.7812 243.883 39.7426C254.619 39.5627 258.993 41.652 266.884 41.8743L265.325 42.154C268.375 41.7327 271.906 40.9431 276.455 39.4468C292.669 34.1143 309.912 32.6132 316.783 28.9283C322.033 26.1119 324.538 28.3886 329.936 27.8618L327.678 28.9414C329.17 28.1855 330.823 27.0811 332.705 25.352C340.125 18.5364 345.562 15.2182 353.233 11.4594L354.464 10.4597L356.632 10.341C357.272 10.4521 357.923 10.5686 358.589 10.6904C366.471 12.1315 387.995 13.3364 400.991 12.4031L399.708 12.6483C402.021 11.5555 403.998 10.5047 405.476 9.54299C414.486 3.68329 427.035 2.79757 434.082 0.990803C436.277 0.428019 438.064 0.135428 439.471 0.00792215C440.068 -0.0459349 440.443 0.183464 440.569 0.505577C440.57 0.505778 440.57 0.505993 440.57 0.50621C440.727 0.907424 440.498 1.45218 439.83 1.77261C436.588 3.32806 431.853 5.93418 426.529 9.70082C417.262 16.2572 414.575 14.4914 402.63 20.0971L401.024 20.4042C400.086 20.4691 399.091 20.5519 398.032 20.6557C382.945 22.1353 373.567 24.9323 356.687 23.6489L361.091 22.1997C360.28 22.6987 359.443 23.2012 358.576 23.7078C348.096 29.8314 344.903 35.7757 337.536 42.4159L334.231 43.9957C329.097 45.9408 322.693 47.6203 313.155 48.467C290.674 50.4626 286.712 57.0621 271.085 63.7908L269.003 64.1642C265.853 64.9389 262.284 65.6485 258.096 66.2278C252.333 67.0247 246.21 67.5732 239.996 67.9643L244.817 66.5948C237.352 69.991 229.641 73.1883 222.336 76.1615L227.28 71.7565C221.742 79.096 216.52 85.8921 212.479 91.5828L208.744 96.7632L203.456 96.5172C200.333 96.3944 197.526 96.3486 195.118 96.4171C184.967 96.7062 172.595 97.2485 159.109 97.3365L155.328 96.7098C148.096 94.2311 140.575 91.4963 132.996 88.4504C131.211 87.7328 129.38 87.0297 127.509 86.3377L133.765 86.5644C116.275 90.8146 96.6488 97.5895 77.4831 102.072L79.9357 101.098C76.6106 102.768 73.2824 104.354 69.9605 105.821C65.2477 107.903 60.1385 110.174 54.8646 112.522L54.2438 112.828C44.923 116.175 35.1017 119.712 25.9874 122.964L22.5914 124.286L20.025 122.864C11.3953 117.758 3.48614 113.039 -2.43654 109.403L1.72822 109.435C0.427818 109.902 -0.790104 110.335 -1.91508 110.728C-14.8249 115.246 -19.555 116.924 -28.7944 121.805L-28.059 121.315C-29.5044 122.75 -31.0781 124.352 -32.8571 126.19C-36.4289 129.88 -41.0691 134.034 -46.1063 137.925L-47.2092 138.827L-48.3079 138.752C-53.0917 138.292 -57.9384 137.569 -62.4236 136.551C-67.6705 135.361 -66.4502 133.854 -61.1366 133.217C-56.1624 132.62 -51.77 132.744 -48.1964 132.428L-50.3518 133.237C-49.0085 131.733 -47.9489 130.305 -47.3447 128.831C-44.2359 121.244 -42.6925 117.8 -35.3512 113.263L-33.4223 111.977C-32.7628 111.803 -32.0667 111.633 -31.3297 111.466C-21.2675 109.183 -19.1224 102.594 -13.5608 100.617C-10.5342 99.5413 -8.80485 99.8608 -3.66068 97.991L-0.694059 96.4061L3.1263 98.0428C7.04284 100.427 13.6566 103.72 26.3437 108.769C26.5069 108.834 26.6696 108.898 26.8319 108.963L19.6514 108.842C30.2043 103.103 38.8765 98.5098 46.127 94.737L45.4299 95.0814C55.6191 88.7789 62.8927 84.4603 68.6168 80.9936C68.7267 80.9271 68.8382 80.8602 68.9512 80.7928L71.5441 79.7631C82.4923 76.3569 105.646 72.7956 123.02 67.2163C124.6 66.7087 126.334 66.1755 128.189 65.6214L130.844 64.7689L134.586 65.8532C142.593 68.3536 152.728 71.8156 162.756 75.2069L159.016 74.5869C173.158 74.4366 187.079 74.2298 194.939 73.4028C198.443 73.0341 201.136 72.9304 203.359 73.0112L192.741 78.8179C196.985 72.8045 200.105 72.2096 206.396 65.1147ZM84.9997 340.321C92.0188 338.303 97.0879 333.94 102.687 329.474L106.029 328.565C111.734 326.36 117.83 324.2 125.372 323.88C139.785 323.27 143.778 326.343 157.142 324.977L157.298 324.96C159.117 324.806 161.111 324.572 163.33 324.239C180.094 321.727 197.178 322.444 206.303 320.691L204.895 320.944C205.818 320.604 206.648 320.251 207.375 319.879C214.968 316.002 217.213 321.016 228.342 316.807C231.577 315.583 234.474 314.617 237.212 313.839L235.968 314.295C242.191 311.219 247.69 309.412 254.86 307.401C259.586 306.075 268.521 302.694 277.672 298.764L277.62 298.789C287.976 294.139 298.6 288.771 303.614 285.01C305.9 283.296 308.426 281.852 311.049 280.61L312.501 279.808L314.569 280.27C323.26 282.786 331.355 287.392 336.973 289.62C339.284 290.536 341.061 291.414 342.396 292.186C342.961 292.514 343.15 292.929 343.06 293.263C343.06 293.263 343.06 293.263 343.059 293.263C342.946 293.679 342.398 293.969 341.601 293.809C337.73 293.029 331.865 292.156 324.743 291.837C318.852 291.573 315.471 290.742 312.024 289.623L315.339 289.303C311.17 291.116 306.622 292.661 298.252 297.721C292.16 301.404 287.204 304.799 282.179 308.027L282.079 308.075C274.622 312.695 267.02 316.95 255.445 321.155C249.907 323.168 245.879 325.365 242.299 327.67L241.019 328.139C232.262 331.739 225.585 336.264 209.64 338.768L208.077 339.049C205.981 339.032 203.736 338.956 201.319 338.811C179.767 337.512 172.817 341.857 159.312 345.808L159.511 345.788C154.622 347.309 148.865 348.793 141.215 349.967C131.039 351.528 119.829 352.471 108.827 353.144L112.724 352.084C95.4787 358.684 78.5612 364.387 68.0281 368.999L66.4479 369.557C65.4996 369.804 64.5984 370.051 63.748 370.297C50.574 374.119 33.9268 379.248 15.662 383.836L14.1481 384.131C9.01567 384.7 3.7682 385.213 -1.55125 385.636C-13.6839 386.602 -27.087 388.683 -40.8281 390.72L-33.8 386.949C-40.9995 395.712 -48.3859 404.604 -56.007 412.817L-59.0584 416.05L-62.45 416.506C-65.4518 416.936 -68.4357 417.315 -71.3922 417.633C-82.6986 418.846 -95.9362 420.318 -108.833 421.735L-110.585 421.856C-128.78 419.823 -146.289 417.831 -156.692 416.416C-158.868 416.12 -160.842 415.851 -162.664 415.609L-161.128 415.359C-173.812 418.911 -178.735 420.592 -192.509 426.812C-201.531 430.885 -214.449 435.212 -225.97 437.27C-231.768 438.305 -231.087 436.411 -225.905 433.653C-218.327 429.62 -211.54 427.797 -208.119 424.45C-201.285 417.76 -198.324 415.065 -187.189 413.197C-176.054 411.329 -172.978 404.755 -166.741 402.999C-166.458 402.919 -166.185 402.849 -165.92 402.786L-162.112 402.165C-156.479 403.145 -155.261 405.81 -123.876 404.906C-118.876 404.762 -114.22 404.644 -109.875 404.546L-111.93 404.689C-90.3451 399.334 -76.5983 396.298 -66.5341 394.024L-73.3304 397.915C-72.7585 397.19 -72.2058 396.489 -71.6705 395.808C-67.2251 390.151 -59.0352 381.75 -50.501 372.583L-48.2135 369.661L-43.5641 368.861C-34.4678 368.083 -24.9629 367.127 -16.5401 365.677C-9.28519 364.427 0.736088 363.069 11.3374 361.675L9.83988 361.967C27.9307 357.029 47.7741 351.74 57.7376 348.081C58.7037 347.726 59.6136 347.406 60.4737 347.116L58.606 347.774C70.819 341.377 72.7907 343.829 84.9997 340.321ZM189.439 268.195C196.738 268.453 202.91 265.876 209.618 263.366L206.266 264.239C211.089 260.477 216.299 256.645 223.425 254.156C237.045 249.4 241.757 251.186 254.153 246.011L254.01 246.074C255.682 245.342 257.495 244.478 259.488 243.45C274.552 235.675 290.958 230.855 299.033 226.258L300.38 225.778C301.303 225.438 302.133 225.084 302.86 224.713C310.453 220.836 312.698 225.85 323.827 221.641C327.062 220.417 329.959 219.451 332.697 218.673L334.003 218.449C340.914 217.791 346.696 218.059 354.112 218.732C359 219.175 368.553 219.196 378.504 218.78L378.56 218.776C389.908 218.487 401.781 217.639 407.858 216.106C410.629 215.407 413.517 215.051 416.416 214.919L413.192 216.374C419.688 210.076 427.702 205.331 432.423 201.558C434.366 200.006 436.009 198.899 437.342 198.123C437.907 197.795 438.361 197.836 438.606 198.08C438.606 198.081 438.606 198.081 438.606 198.081C438.911 198.385 438.891 199.005 438.356 199.618C435.759 202.592 432.092 207.251 428.282 213.277C425.131 218.262 422.733 220.785 420.051 223.223L418.578 224.569L417.016 224.594C412.47 224.656 407.679 224.325 398.004 225.76C390.962 226.804 385.079 228.022 379.198 229.058L379.309 229.051C370.695 230.714 362.077 231.984 349.763 231.794C343.871 231.703 339.325 232.323 335.159 233.202L336.504 232.973C327.747 236.573 321.07 241.098 305.125 243.602L306.622 243.069C304.632 243.727 302.482 244.378 300.147 245.018C279.323 250.726 274.141 257.076 262.627 265.164L262.444 265.245C258.205 268.116 253.124 271.203 246.14 274.541C236.852 278.98 226.395 283.127 216.059 286.956L212.151 287.974C193.709 288.903 175.857 289.08 164.413 290.2L166.061 289.898C165.113 290.145 164.212 290.392 163.361 290.638C150.187 294.46 133.54 299.589 115.275 304.177L116.735 303.68C111.943 305.604 107.025 307.505 102.014 309.338C90.5839 313.52 78.2289 319.118 65.5364 324.763L61.046 326.401L57.5636 324.985C46.7889 321.445 35.8261 317.778 25.4118 313.646L32.8365 313.644C29.9422 314.548 27.0578 315.401 24.1903 316.188C13.2246 319.198 0.394132 322.773 -12.1091 326.239L-10.5284 325.473C-26.6725 334.107 -42.2284 342.386 -51.6025 347.114C-53.5632 348.103 -55.3421 349.001 -56.9801 349.833L-58.4373 350.38C-71.5816 351.236 -76.7459 351.864 -91.5074 355.105C-101.176 357.227 -114.71 358.792 -126.407 358.427C-132.293 358.243 -131.236 356.53 -125.596 354.901C-117.349 352.521 -110.332 352.139 -106.293 349.57C-98.2248 344.436 -94.7709 342.41 -83.4899 342.882C-72.2094 343.355 -67.8419 337.557 -61.3771 337.127C-61.0834 337.108 -60.8022 337.095 -60.5301 337.089L-64.1429 338.443C-58.9461 336.058 -56.4321 337.564 -31.0838 319.037C-27.0452 316.085 -23.2758 313.349 -19.7512 310.807L-17.8977 309.91C2.54954 301.164 15.632 295.964 25.2016 292.106L28.5448 290.745L33.0333 292.104C33.9161 292.374 34.7703 292.636 35.599 292.888C42.4807 294.985 53.2768 299.579 64.9111 304.217L57.0418 304.437C65.597 301.25 74.4979 297.781 82.2238 294.126C88.8785 290.978 98.1691 286.984 108.009 282.799L109.453 282.308C127.544 277.37 147.387 272.081 157.351 268.422C158.317 268.067 159.227 267.747 160.087 267.457L162.035 267.1C175.63 264.803 176.744 267.746 189.439 268.195ZM258.019 93.8394C265.318 94.0975 271.49 91.5205 278.198 89.0106L274.847 89.8834C279.669 86.1215 284.879 82.2891 292.006 79.8005C305.626 75.0442 310.337 76.8304 322.733 71.6546L322.59 71.7179C324.263 70.9858 326.075 70.1226 328.069 69.0938C343.132 61.3196 359.538 56.4987 367.613 51.9024L368.961 51.4225C369.883 51.0819 370.714 50.7286 371.44 50.3575C379.033 46.4797 381.279 51.4943 392.407 47.2852C395.643 46.0614 398.539 45.0952 401.277 44.3167L402.583 44.0936C409.494 43.4347 415.276 43.7034 422.693 44.3761C427.58 44.8194 437.134 44.8404 447.084 44.4245L447.141 44.4206C458.489 44.1313 470.362 43.2828 476.439 41.7503C479.209 41.0516 482.097 40.6955 484.996 40.5627L481.772 42.0179C488.268 35.7198 496.282 30.9753 501.004 27.2023C502.946 25.6501 504.589 24.5427 505.922 23.7672C506.487 23.4388 506.941 23.4801 507.186 23.7245C507.186 23.7246 507.187 23.7248 507.187 23.7249C507.491 24.0296 507.472 24.649 506.937 25.2618C504.34 28.2362 500.672 32.8954 496.863 38.9215C493.712 43.906 491.313 46.429 488.631 48.8676L487.158 50.2128L485.596 50.2377C481.05 50.3006 476.259 49.9692 466.584 51.4038C459.542 52.448 453.66 53.6662 447.778 54.7026L447.889 54.6948C439.275 56.3578 430.657 57.6283 418.343 57.4383C412.451 57.3474 407.906 57.9669 403.74 58.8464L405.084 58.6168C396.328 62.2167 389.65 66.7417 373.706 69.2457L375.202 68.7129C373.212 69.3715 371.062 70.022 368.727 70.662C347.904 76.3698 342.722 82.7203 331.208 90.8082L331.025 90.8889C326.785 93.7602 321.704 96.8473 314.721 100.185C305.433 104.624 294.976 108.771 284.639 112.6L280.731 113.618C262.289 114.547 244.438 114.724 232.993 115.844L234.642 115.542C233.693 115.789 232.792 116.036 231.942 116.283C218.768 120.104 202.121 125.233 183.856 129.821L185.316 129.325C180.524 131.249 175.606 133.149 170.594 134.982C159.164 139.164 146.809 144.762 134.117 150.407L129.626 152.045L126.144 150.629C115.369 147.089 104.407 143.422 93.9923 139.29L101.417 139.288C98.5227 140.192 95.6383 141.046 92.7708 141.833C81.805 144.842 68.9746 148.417 56.4713 151.883L58.0521 151.117C41.908 159.751 26.352 168.03 16.9779 172.758C15.0173 173.747 13.2383 174.645 11.6004 175.477L10.1431 176.024C-3.00114 176.88 -8.16544 177.508 -22.927 180.749C-32.5956 182.871 -46.1291 184.437 -57.8262 184.071C-63.713 183.887 -62.6554 182.174 -57.0157 180.546C-48.7686 178.165 -41.7511 177.783 -37.7131 175.214C-29.6444 170.08 -26.1905 168.054 -14.9094 168.527C-3.62897 168.999 0.738473 163.201 7.20331 162.771C7.49708 162.752 7.77819 162.739 8.05028 162.733L4.43755 164.087C9.63434 161.702 12.1484 163.209 37.4966 144.681C41.5353 141.729 45.3046 138.994 48.8292 136.451L50.6827 135.554C71.13 126.808 84.2124 121.608 93.782 117.75L97.1252 116.389L101.614 117.748C102.497 118.018 103.351 118.28 104.179 118.532C111.061 120.629 121.857 125.223 133.492 129.861L125.622 130.081C134.177 126.894 143.078 123.425 150.804 119.77C157.459 116.622 166.75 112.628 176.589 108.443L178.034 107.952C196.124 103.014 215.968 97.7249 225.931 94.0662C226.897 93.7114 227.807 93.3907 228.667 93.101L230.615 92.7438C244.21 90.4475 245.324 93.3903 258.019 93.8394Z" fill="#E14415"/>
</svg>
