<svg width="379" height="240" viewBox="0 0 379 240" fill="none" xmlns="http://www.w3.org/2000/svg">
<path fill-rule="evenodd" clip-rule="evenodd" d="M0.882343 196.069C-0.127485 195.949 -0.334058 194.573 0.595899 194.162L46.7257 173.746C46.8311 173.699 46.9438 173.671 47.0587 173.663L85.8416 170.872C86.8879 170.797 87.1271 169.367 86.1623 168.955L61.6513 158.498C61.5108 158.438 61.386 158.347 61.2862 158.231L30.9062 122.982C30.2815 122.257 30.9336 121.153 31.8698 121.35L87.8327 133.141C88.0369 133.184 88.2225 133.29 88.3635 133.443L118.786 166.621C119.008 166.863 119.334 166.98 119.659 166.936L146.349 163.27C146.435 163.258 146.519 163.235 146.599 163.202L180.359 149.048C180.42 149.023 180.478 148.992 180.533 148.955L211.349 128.125C212.286 127.492 211.617 126.034 210.526 126.332L179.201 134.894C179.121 134.916 179.038 134.928 178.954 134.929L147.685 135.453C147.51 135.456 147.337 135.413 147.184 135.328L119.348 119.93C118.495 119.458 118.752 118.169 119.721 118.061L142.774 115.498C142.872 115.487 142.968 115.462 143.059 115.423L186.361 96.7706C186.551 96.6885 186.763 96.6677 186.966 96.7112L235.353 107.077C235.634 107.137 235.927 107.073 236.158 106.902L322.119 43.2406C322.854 42.6967 322.534 41.5337 321.625 41.4421L309.647 40.2358C309.532 40.2242 309.416 40.2327 309.304 40.2607L238.159 58.0628C238.019 58.0978 237.873 58.1021 237.731 58.0755L206.234 52.1527C206.089 52.1253 205.951 52.0659 205.831 51.9788L187.317 38.5244C186.578 37.9869 186.888 36.8206 187.797 36.7214L216.069 33.6373C216.184 33.6248 216.295 33.5926 216.399 33.542L257.191 13.6385C257.267 13.6014 257.347 13.5741 257.43 13.5573L284.647 8.02455C284.767 8.00008 284.891 7.998 285.012 8.0184L298.383 10.2715C298.488 10.2891 298.589 10.3233 298.683 10.3727L339.553 31.8862C339.854 32.0445 340.214 32.0392 340.51 31.8719L373.442 13.2652C373.514 13.2244 373.581 13.1746 373.641 13.1172L421.276 -32.4576C421.636 -32.802 422.195 -32.8289 422.586 -32.5206L430.462 -26.3179C430.944 -25.9385 430.974 -25.219 430.525 -24.8009L373.227 28.6327C373.016 28.8292 372.901 29.107 372.91 29.395L375.948 127.549C375.953 127.71 375.919 127.869 375.85 128.014L366.612 147.18C366.574 147.259 366.525 147.333 366.467 147.4L348.633 167.999C347.994 168.737 346.784 168.216 346.882 167.244L349.502 141.232C349.521 141.039 349.489 140.854 349.401 140.681C348.26 138.432 339.971 121.827 337.772 110.004C336.035 100.661 335.771 95.1787 336.501 85.7044C338.062 65.4375 354.418 39.8042 361.079 30.1195C361.695 29.224 360.611 28.0588 359.669 28.6018L307.71 58.5723C307.65 58.6072 307.593 58.6484 307.541 58.6951L287.343 76.8665C287.231 76.9664 287.144 77.09 287.087 77.228L279.857 94.7262C279.818 94.8206 279.794 94.9204 279.785 95.0223L274.344 158.228C274.33 158.383 274.281 158.533 274.2 158.665L257.712 185.496C257.668 185.567 257.615 185.633 257.555 185.691L237.846 204.733C237.098 205.455 235.882 204.699 236.198 203.709L244.416 178C244.464 177.849 244.476 177.69 244.451 177.534L238.219 139.347C238.185 139.133 238.22 138.915 238.32 138.723L258.822 99.4267C259.33 98.4519 258.122 97.4897 257.286 98.2037L215.436 133.94L176.944 158.679C176.766 158.794 176.629 158.962 176.552 159.159L156.66 210.519C156.6 210.672 156.504 210.807 156.38 210.915L123.599 239.208C122.776 239.918 121.571 238.99 122.047 238.013L128.034 225.723C128.09 225.609 128.124 225.484 128.133 225.357L130.417 193.602C130.434 193.372 130.529 193.154 130.688 192.986L156.431 165.762C157.095 165.06 156.474 163.917 155.523 164.092L100.008 174.319C99.8752 174.344 99.7489 174.395 99.6365 174.469L67.062 196.062C66.977 196.118 66.8839 196.161 66.7859 196.189L47.98 201.6C47.8518 201.637 47.7176 201.648 47.5852 201.632L0.882343 196.069Z" fill="#F4E5CD"/>
</svg>
