<svg width="553" height="518" viewBox="0 0 553 518" fill="none" xmlns="http://www.w3.org/2000/svg">
<path d="M0.045707 226.841C-1.5354 161.424 38.0388 102.028 99.0191 78.2936L119.016 70.5108C135.464 64.1089 149.567 52.8407 159.442 38.2112C188.607 -4.99838 249.031 -12.8951 288.322 21.3681L298.774 30.4831C320.733 49.6324 350.014 58.134 378.814 53.7224L388.271 52.2738C441.226 44.1619 493.115 72.2578 515.266 121.037L536.03 166.763C565.599 231.877 555.192 308.18 509.267 362.998L481.118 396.596C465.41 415.346 446.807 431.465 426.013 444.345L334.421 501.079C286.858 530.539 224.741 519.44 190.324 475.332L181.774 464.375C162.743 439.985 132.052 427.733 101.456 432.311C50.4298 439.947 4.25828 401.133 3.01163 349.554L0.045707 226.841Z" fill="#F4E5CD"/>
</svg>
