<svg width="613" height="433" viewBox="0 0 613 433" fill="none" xmlns="http://www.w3.org/2000/svg">
<path d="M3.5689 251.548C-16.1411 170.919 48.4702 94.3314 131.309 99.5415C172.792 102.151 212.933 83.4436 237.475 49.8984C289.594 -21.34 397.811 -15.2386 441.593 61.4067L472.232 115.045C483.916 135.5 499.924 153.159 519.139 166.789L557.354 193.898C604.572 227.392 624.348 287.814 606.073 342.745C585.671 404.067 523.754 441.492 459.976 431.052L337.929 411.074C310.175 406.531 281.778 407.825 254.552 414.875L216.639 424.692C128.309 447.564 38.3365 393.774 16.6698 305.14L3.5689 251.548Z" fill="#F4E5CD"/>
</svg>
