<svg width="541" height="467" viewBox="0 0 541 467" fill="none" xmlns="http://www.w3.org/2000/svg">
<path d="M0.264145 254.969C-4.81408 169.748 63.9972 97.8483 149.369 97.8483C190.9 97.8483 230.878 80.0342 258.39 48.9244C314.135 -14.1097 411.662 -16.5856 470.533 43.5389L481.121 54.352C515.85 89.8201 532.025 139.47 524.853 188.589L517.512 238.865C514.672 258.322 518.545 278.165 528.493 295.125C562.317 352.785 520.737 425.381 453.889 425.381H378.842C367.377 425.381 355.963 426.903 344.898 429.909L234.718 459.841C121.928 490.482 9.48406 409.695 2.53178 293.024L0.264145 254.969Z" fill="#F4E5CD"/>
</svg>
