<svg width="605" height="536" viewBox="0 0 605 536" fill="none" xmlns="http://www.w3.org/2000/svg">
<path d="M0 259.601C0 187.923 45.5212 124.155 113.312 100.871L169.058 81.7232C185.85 75.9554 201.982 68.4178 217.179 59.2378L267.717 28.7117C333.471 -11.0055 416.195 -9.40633 480.365 32.8224L546.544 76.3737C610.316 118.34 623.543 206.375 574.92 265.229C552.5 292.367 542.217 327.526 546.481 362.469L546.837 365.383C553.427 419.387 526.982 472.076 479.742 499.063L456.257 512.479C405.646 541.391 343.996 543.34 291.661 517.681L162.836 454.52L78.7291 401.827C29.7451 371.139 0 317.404 0 259.601Z" fill="#F4E5CD"/>
</svg>
