<svg width="541" height="442" viewBox="0 0 541 442" fill="none" xmlns="http://www.w3.org/2000/svg">
<path d="M9.5279 249.74C-24.8163 168.478 38.2026 79.4361 126.26 84.8036C157.212 86.6903 187.676 76.4077 211.154 56.1493L229.281 40.5078C278.477 -1.94241 347.851 -11.9511 407.04 14.8621L496.592 55.4304C535.309 72.9697 551.303 119.463 531.57 157.109C521.422 176.469 520.361 199.327 528.67 219.545L532.628 229.173C556.594 287.484 513.718 351.463 450.674 351.463C426.841 351.463 404.014 361.063 387.345 378.097L369.34 396.496C323.197 443.65 251.639 455.068 193.112 424.615L101.437 376.915C69.819 360.464 44.9286 333.501 31.0534 300.671L9.5279 249.74Z" fill="#F4E5CD"/>
</svg>
