<svg width="486" height="840" viewBox="0 0 486 840" fill="none" xmlns="http://www.w3.org/2000/svg">
<path d="M335.187 373.071C369.172 254.346 498.8 115.416 559.366 60.7921L442.061 957.258C288.153 1006.28 -13.0008 1062.35 13.6425 894.436C46.9466 684.548 97.702 631.349 127.502 603.881C157.303 576.414 292.706 521.478 335.187 373.071Z" fill="#FDA603"/>
<path d="M257.034 891.904L299.392 939.483L333.611 986.146C320.818 988.933 307.806 991.543 294.711 993.916L255.314 944.885L246.383 939.764L247.424 936.778L232.629 921.576L221.711 915.427L220.793 909.414L215.794 909.346L188.511 929.978L162.079 961.622L152.999 967.499L131.512 1003.21L128.553 1005.68C112.838 1004.25 98.1387 1001.78 84.829 998.074L136.556 926.273L154.812 907.518L208.296 872.24L237.266 874.634L257.034 891.904ZM219.128 958.395L237.868 977.652L261.649 993.976L262.237 999.257C249.465 1001.14 236.721 1002.74 224.129 1004L216.599 997.365L209.809 1005.29C192.358 1006.69 175.299 1007.37 158.974 1007.18L182.995 967.906L185.982 968.947L185.036 964.933L198.171 955.111L209.183 954.26L219.128 958.395ZM114.656 623.947L115.548 631.96L138.179 659.27L170.376 718.712L201.735 766.142L211.449 787.275L214.164 808.315L212.001 820.286L194.867 830.055L197.84 832.095L203.893 828.177L205.853 831.204L199.84 832.122L201.798 835.149L188.637 846.971L102.695 915.812L94.5599 925.702L95.4784 931.715L89.3169 943.633L66.9251 972.332L62.7766 983.277L58.4015 988.108C44.7847 981.291 33.659 972.436 25.7159 961.204L59.5908 923.228L68.8206 906.352L44.2838 872.015L31.4208 861.84L21.8523 847.439C24.3156 834.659 26.8469 822.57 29.4339 811.13L34.018 817.871L38.044 815.926L44.9625 822.021L47.8263 832.06L58.7852 835.208L72.5389 853.397L84.4843 857.559L96.3062 870.721L124.521 855.103L176.235 802.799L154.793 761.504L146.889 754.397L141.107 738.316L117.503 708.994L109.788 687.887L86.7158 653.242C95.329 639.147 103.646 628.515 111.29 620.057L114.656 623.947ZM26.1637 880.77L34.0542 888.879L36.8645 902.917L26.5661 924.78L14.6281 936.903C11.5403 924.683 11.0635 910.594 13.6286 894.428C14.1935 890.868 14.764 887.354 15.3386 883.884L16.1233 883.635L16.1887 878.807C16.1981 878.751 16.2078 878.695 16.2172 878.64L26.1637 880.77ZM338.766 469.974L388.015 525.648L423.32 577.131L428.912 607.21L425.736 620.167L428.696 623.208L419.438 642.084L379.899 681.551L363.588 704.332L335.252 728.95L320.995 747.759L318.009 746.718L313.874 756.662L278.28 800.183L278.172 808.183L286.953 824.303L320.49 858.762L319.435 862.748L368.67 919.421L377.453 935.542L400.111 960.851L401.016 967.864L405.016 967.919L405.258 968.264C391.536 972.128 377.114 975.926 362.226 979.547L303.975 896.541L242.957 823.707L240.08 814.666L229.23 803.518L228.339 795.505L279.203 732.19L358.199 659.255L373.469 639.46L391.671 624.706L392.752 618.72L379.066 595.532L385.052 596.613L382.174 587.574L364.366 573.33L325.075 520.793L280.966 478.492C290.121 466.875 298.791 454.263 306.667 440.552L338.766 469.974ZM349.314 798.147L363.028 819.335L410.414 864.982L427.072 890.211L448.004 911.718L442.353 954.909L439.203 954.381L439.297 947.381L431.299 947.273L412.612 924.017L397.763 912.815L381.076 889.586L347.513 857.128L316.127 811.699L321.249 802.767L317.344 795.713L326.398 791.836L341.383 793.039L349.314 798.147ZM92.4772 710.655L95.3964 716.695L100.422 714.763L98.328 721.735L102.165 733.788L130.755 764.179L144.469 785.366L146.292 798.393L136.226 803.256L140.184 806.31L144.252 801.366L143.157 808.351L110.78 835.914L94.7272 839.697L83.8094 833.548L82.8775 828.535L37.4247 787.915L35.245 786.861C37.973 776.096 40.7491 765.98 43.5611 756.466L48.8443 757.067L93.2972 797.674L106.35 793.851L109.431 787.892L104.445 786.824L106.486 783.851L100.609 774.771L95.5952 775.703L98.6358 772.743L95.6907 768.704L69.8694 755.352L57.0465 742.177L58.1955 731.191L73.5608 704.398L95.5312 706.696L92.4772 710.655ZM466.19 660.721L479.395 671.827L473.37 717.866L471.389 719.796L472.456 714.81L456.634 701.595L407.028 745.925L405.919 753.911L396.906 754.789L391.785 763.72L416.512 784.057L449.979 823.515L458.94 828.148L453.181 872.161L447.342 870.484L358.707 769.272L354.938 752.22L364.991 748.355L366.059 743.369L358.046 744.261L396.585 704.78L414.95 678.026L446.259 655.449L466.19 660.721ZM466.954 751.739L469.025 751.08L463.503 793.277L462.412 791.681L459.399 792.64L437.767 765.344L441.849 759.399L436.971 750.332L442.038 745.401L466.036 745.726L466.954 751.739ZM288.97 528.304L350.082 594.138L355.946 604.22L357.742 619.245L350.594 630.149L320.284 652.74L279.718 694.193L253.477 711.839L231.18 733.538L210.222 730.254L206.331 722.201L203.318 723.159L175.85 683.783L166.149 661.649L149.395 643.421L132.763 616.193L127.79 614.125L126.885 607.112L124.79 606.381C125.707 605.521 126.607 604.685 127.489 603.873C132.627 599.137 140.904 593.585 151.303 586.878L160.018 597.56L174.637 625.762L189.446 639.964L206.078 667.192L218.901 680.367L219.791 688.38L230.736 692.529L235.858 683.598L261.06 668.938L294.599 629.389L312.801 614.635L316.868 609.69L314.045 596.65L311.018 598.609L309.153 588.583L289.4 570.314L255.027 523.843L250.027 523.775L252.068 520.802L247.335 515.33C253.264 509.671 259.146 503.697 264.915 497.384L288.97 528.304ZM254.675 549.84L252.607 554.813L243.594 555.691L243.54 559.69L250.485 563.785L249.376 571.77L258.308 576.892L259.24 581.905L267.294 578.014L279.265 580.177L292.006 599.352L289.898 607.323L278.791 615.174L252.358 646.818L237.279 652.614L221.293 651.397L200.743 618.115L169.234 581.684L167.708 576.332C177.151 570.222 187.57 563.324 198.494 555.48L206.462 565.187L219.176 586.362L223.162 587.417L221.053 595.388L229.053 595.497L236.957 602.605L246.011 598.727L255.24 581.851L246.241 581.728L241.404 569.662L216.182 542.219C222.294 537.423 228.481 532.327 234.669 526.908L254.675 549.84ZM482.822 645.638L456.855 611.59L452.154 589.524L459.139 590.618L455.168 588.564L455.276 580.564L471.546 560.784L478.572 558.879L496.647 539.985L482.822 645.638ZM336.069 373.929L408.071 447.912L448.362 500.464L453.361 500.532L476.563 485.845L507.696 455.545L500.888 507.573L500.262 508.168L461.899 534.651L448.874 536.474L431.929 532.244L419.093 520.068L358.063 448.234L348.158 441.098L341.322 429.005L321.629 410.821C326.761 399.037 331.296 386.558 335.094 373.335L336.069 373.929ZM383.417 348.569L388.281 358.636L429.843 391.202L445.556 412.417L458.42 422.593L517.716 378.972L512.664 417.575L483.159 441.93L454.931 458.549L441 453.359L383.902 386.578L342.1 352.011C345.866 341.825 350.242 331.538 355.132 321.214L383.417 348.569ZM513.142 222.317L507.115 224.235L514.019 231.33L523.992 233.465L527.883 241.519L535.024 246.706L530.259 283.116L504.695 255.205L442.13 296.36L431.955 309.223L421.888 314.087L424.766 323.127L457.396 350.572L467.396 350.708L480.571 337.885L491.638 333.035L501.854 317.173L493.977 308.065L484.964 308.943L473.816 319.792L468.844 317.724L470.789 321.751L462.721 326.642L450.79 321.48L447.927 311.441L467.047 302.699L486.276 285.958L502.315 283.176L527.172 306.702L521.733 348.275L474.933 384.813L469.934 384.746L469.88 388.745L460.84 391.623L414.401 349.989L384.864 315.585L386.986 306.613L399.175 292.777L413.283 284.968L470.955 235.745L502.197 218.168L511.182 219.29L513.142 222.317ZM523.091 152.446L544.124 177.153L539.449 212.884L514.63 186.334L485.483 196.94L455.106 224.529L448.08 226.434L399.473 270.779L399.42 274.779L391.379 277.67L392.339 280.683L373.205 290.425L369.383 293.522C385.407 264.593 404.756 235.809 425.265 208.545L431.353 206.206L471.932 163.752L499.187 145.121L523.091 152.446ZM547.889 93.7764L553.994 101.729L547.433 151.866L508.343 110.862C518.129 100.571 527.492 91.1023 536.167 82.6236L547.889 93.7764Z" fill="#FDBB03"/>
</svg>
