<svg width="351" height="674" viewBox="0 0 351 674" fill="none" xmlns="http://www.w3.org/2000/svg">
<path d="M196.136 461.018C12.4433 453.185 10.565 675.719 6.35244 672.76L5.66988 679.224L360.993 771.043L459.268 40.3232L367.146 36.6293C371.374 180.703 343.091 467.284 196.136 461.018Z" fill="#E14415"/>
<path d="M422.265 38.835L380.243 85.6582L418.121 147.457L449.181 115.331L444.474 150.327L426.342 168.168L439.091 190.354L433.273 233.609L409.141 199.308L360.488 253.518L399.421 315.436L426.131 286.713L420.11 331.479L403.175 349.679L414.456 373.521L407.496 425.274L388.807 399.302L341.307 452.597L379.057 515.432L398.059 495.444L391.089 547.271L386.618 552.095L389.596 558.368L379.515 633.33L364.072 611.87L316.571 665.165L354.322 727.999L368.835 712.734L360.994 771.039L319.335 760.273L325.862 751.657L279.799 656.411L280.234 652.512L347.908 553.831L302.989 460.229L376.289 344.606L344.072 283.052C349.147 261.824 353.254 239.825 356.527 217.733L393.693 171.577L366.031 120.891C367.152 99.4573 367.603 78.9878 367.53 60.2158L385.895 37.376L422.265 38.835Z" fill="#EF4F1F"/>
<path d="M315.356 749.554L309.42 757.711L303.085 756.074L308.022 749.601L283.125 697.996L277.444 749.496L270.127 747.557L278.108 671.937L315.356 749.554Z" fill="#EF4F1F"/>
<path d="M259.858 744.903L256.457 744.025L260.433 739.753L259.858 744.903Z" fill="#EF4F1F"/>
<path d="M236.016 556.407L194.495 592.957L168.744 547.045L206.774 508.232L236.016 556.407Z" fill="#EF4F1F"/>
<path fill-rule="evenodd" clip-rule="evenodd" d="M219.779 460.221L277.975 560.198L202.352 642.371L258.072 729.083L246.577 741.472L219.935 734.587L229.363 725.896L189.767 660.761L139.193 712.686L139.87 713.897L106.835 705.361L106.728 705.142L171.258 631.847L125.355 538.156L191.062 460.857C192.738 460.891 194.431 460.942 196.139 461.015C204.673 461.379 212.806 460.752 220.557 459.226L219.779 460.221ZM156.939 544.602L192.44 608.205L246.991 558.856L208.567 492.793L156.939 544.602Z" fill="#EF4F1F"/>
<path d="M217.291 724.37L209.08 731.782L151.796 716.979L150.111 714.003L188.118 675.214L217.291 724.37Z" fill="#EF4F1F"/>
<path d="M265.318 695.985L258.785 686.496L268.944 595.496L227.566 641.149L265.318 695.985L262.992 716.828L212.613 641.379L279.199 571.635L265.318 695.985Z" fill="#EF4F1F"/>
<path d="M377.791 646.142L370.993 696.685L355.978 712.55L327.284 668.229L363.844 626.357L377.791 646.142Z" fill="#EF4F1F"/>
<path d="M97.0791 670.744L69.9922 695.84L56.209 692.278L100.211 642.696L97.0791 670.744Z" fill="#EF4F1F"/>
<path fill-rule="evenodd" clip-rule="evenodd" d="M161.623 629.631L104.853 691.609L121.847 547.643L161.623 629.631ZM113.944 671.937L153.944 629.631L125.871 573.789L113.944 671.937Z" fill="#EF4F1F"/>
<path d="M101.684 625.974L45.9668 689.632L22.7412 683.63L69.5361 634.412L28.7412 577.723C35.2056 560.769 43.7027 543.439 54.9424 527.492L101.684 625.974Z" fill="#EF4F1F"/>
<path d="M10.5303 680.475L5.67188 679.22L6.28516 673.408L10.5303 680.475Z" fill="#EF4F1F"/>
<path d="M57.4102 633.273L18.0762 674.829L8.71875 660.375C10.7926 645.632 14.7208 619.394 24.1494 590.689L25.9424 588.637L57.4102 633.273Z" fill="#EF4F1F"/>
<path fill-rule="evenodd" clip-rule="evenodd" d="M338.217 553.932L283.125 635.218L299.974 476.032L338.217 553.932ZM294.69 602.279L327.284 554.339L304.527 512.741L294.69 602.279Z" fill="#EF4F1F"/>
<path d="M118.618 477.795L76.4443 518.933L105.393 576.619L103.922 609.452L61.4502 518.815C76.1317 500.426 94.9246 484.481 119.044 473.988L118.618 477.795Z" fill="#EF4F1F"/>
<path d="M294.094 418.537L248.207 465.367L285.083 518.933L281.799 548.348L230.35 463.176L237.092 454.409C261.606 444.83 281.812 425.504 298.381 399.804L294.094 418.537Z" fill="#EF4F1F"/>
<path d="M123.502 524.48L128.299 496.948L165.385 461.951C170.062 461.438 174.88 461.094 179.844 460.928L123.502 524.48Z" fill="#EF4F1F"/>
<path d="M405.763 438.165L400.221 479.37L380.713 499.981L352.019 455.66L388.578 413.789L405.763 438.165Z" fill="#EF4F1F"/>
<path d="M365.818 342.8L304.527 443.479L311.667 376.375C313.596 372.523 315.463 368.576 317.272 364.542L315.167 395.822L354.444 343.996L335.763 314.08C337.448 308.446 339.055 302.726 340.584 296.936L365.818 342.8Z" fill="#EF4F1F"/>
<path d="M416.926 355.157L414.137 349.127L418.323 344.771L416.926 355.157Z" fill="#EF4F1F"/>
<path d="M431.432 247.3L428.113 271.979L401.077 299.98L372.541 253.737L407.782 214.634L431.432 247.3Z" fill="#EF4F1F"/>
<path d="M383.807 171.614L358.556 203.223C359.046 199.503 359.515 195.786 359.961 192.073L374.944 171.399L364.03 151.214C364.367 146.999 364.677 142.807 364.962 138.643L383.807 171.614Z" fill="#EF4F1F"/>
<path d="M440.63 178.906L436.132 171.399L442.447 165.399L440.63 178.906Z" fill="#EF4F1F"/>
<path d="M453.446 83.6123L451.294 99.6162L419.701 132.996L391.183 86.7803L427.497 46.8018L453.446 83.6123Z" fill="#EF4F1F"/>
<path d="M459.27 40.3193L455.311 69.749L434.329 39.3184L459.27 40.3193Z" fill="#EF4F1F"/>
<path d="M375.379 36.9551L367.393 47.1221C367.335 43.839 367.26 40.6188 367.171 37.4658L367.923 36.6562L375.379 36.9551Z" fill="#EF4F1F"/>
</svg>
