<svg width="237" height="64" viewBox="0 0 237 64" fill="none" xmlns="http://www.w3.org/2000/svg">
<path fill-rule="evenodd" clip-rule="evenodd" d="M33.9329 4.40556C33.9329 5.59156 34.4647 7.09822 34.0859 7.73292C33.4365 8.82211 33.6778 9.74282 34.1224 10.8464C34.676 12.2209 34.9931 12.1773 35.6774 13.2089C35.7679 13.3449 35.9684 13.6048 36.1052 13.9714C36.2115 14.2567 36.2501 14.6276 36.3618 14.924C36.5601 15.452 36.7835 15.6445 36.7749 16.1332C36.7749 16.4174 36.1983 16.9316 36.1983 17.2761C36.1983 17.9053 36.7749 18.0761 36.7749 18.6324C36.7749 19.3711 35.733 19.7691 35.733 20.4586C35.6997 21.0485 36.1117 21.3073 36.1117 21.7081C36.1117 21.9779 35.9821 22.2909 35.7587 22.5153C35.2247 23.0517 35.393 23.1557 35.2987 23.755C35.1364 24.7845 34.5899 25.2175 34.1529 26.0651C33.8957 26.5633 33.7131 26.9846 33.3415 27.3567C33.2887 27.4103 33.0866 27.6149 32.8767 27.8322C32.4795 28.2431 32.3602 28.2844 32.3068 28.8109C32.2201 29.6519 31.7799 29.1781 30.937 29.7232C30.4685 30.0262 29.7574 31.0331 29.3858 31.0331C28.8437 31.0331 29.0621 29.9864 29.1923 29.6834C29.3542 29.3063 29.9541 28.8535 29.9541 28.5333C29.9541 27.9196 29.765 27.8018 29.765 27.1881V26.8033C29.765 25.3757 31.7593 25.4879 32.0198 23.7082C32.1005 23.1564 32.053 22.9054 32.1211 22.6687C32.1985 22.4 32.4034 22.1595 32.7276 21.7348C33.4714 20.8087 33.1194 20.6948 33.4599 19.6349C34.1367 17.8213 34.5628 17.9507 33.1559 15.9602C32.6557 15.253 33.0627 14.4944 32.8769 13.5518C32.7816 13.0658 31.8487 12.5842 31.8487 11.8073C31.8487 8.82103 32.0361 8.95763 30.5606 6.9621C30.1846 6.45345 29.6033 5.45269 29.2698 5.09993C28.998 4.81295 28.7784 4.63765 28.5685 4.27339C28.4045 3.98809 28.3032 3.15545 28.0597 3.15545C27.6586 3.15545 27.4914 4.35415 27.4914 4.78983V5.07848C27.4914 6.83281 29.0072 8.052 29.0072 8.73104V8.82726C29.0072 9.74894 28.0368 9.71742 28.7217 11.2319C28.926 11.6831 29.229 12.3134 29.3826 12.9646C29.5155 13.5275 29.5908 13.9505 29.2033 14.3951C29.0214 14.6036 28.8176 14.843 28.8176 15.1719C28.8176 16.0438 29.7444 16.072 29.765 17.8375C29.7842 19.4862 28.4671 19.1296 28.344 20.4588V20.555C28.344 21.5309 28.9722 22.3774 28.2748 23.0807C27.3524 24.0107 27.3966 23.7912 27.3966 25.2652V25.5538C27.3966 26.2106 26.5297 27.3026 26.3645 28.7363C26.1199 30.4929 25.5805 30.755 25.2916 31.9731C24.9592 33.3742 25.2987 34.2422 24.6497 35.5521C24.2046 36.4516 23.6074 37.4153 23.6074 38.7529C23.6074 39.2736 24.0107 39.7714 24.1387 40.2988C24.2291 40.6704 24.3469 41.8956 24.6493 41.8956C25.1974 41.8956 25.4502 40.9435 25.6138 40.0726C25.684 39.6978 25.9412 39.2277 26.0392 38.9928C26.2512 38.4818 26.5792 38.2242 26.9154 37.8505C27.3485 37.3695 27.4172 37.0179 27.7223 36.4583C27.9316 36.0734 28.2084 35.808 28.5795 35.5703C29.0878 35.2446 29.7156 34.9703 30.067 34.5114C30.1716 34.3742 30.2817 34.1144 30.499 33.9518C30.7431 33.7693 30.9916 33.7727 31.3223 33.6206C31.8732 33.3658 32.4061 33.0517 32.8093 33.0517C33.6354 33.0352 33.9018 33.8209 34.6908 33.8209C35.0412 33.8209 35.7779 33.1938 36.3015 33.1938C38.2902 33.1938 39.525 33.1938 40.8255 34.5169C41.1928 34.8896 41.1748 34.9968 41.4522 35.4192C41.6527 35.7239 41.8821 35.7089 42.1497 36.0335C42.2941 36.2088 42.5611 36.6217 42.6314 36.9231C42.6947 37.1918 42.6581 37.4628 42.718 37.7083C42.8058 38.0671 42.9617 38.3038 43.2172 38.3385C43.4481 38.3707 43.6786 38.244 43.9391 38.1749C44.2824 38.0837 44.9564 38.1284 45.2576 38.2882C45.4391 38.3844 45.5998 38.5813 45.7797 39.0064C46.0385 39.6185 45.8151 39.6604 46.2674 40.3384C46.4624 40.6315 46.7882 41.3187 47.1958 41.3187C47.78 41.3021 47.4296 40.3936 47.6541 39.8651C47.9053 39.274 48.2377 39.1718 48.2377 38.2423V37.9543C48.2377 37.3405 47.8061 36.7975 47.8923 36.1689C47.9898 35.4513 48.3326 34.837 48.3326 34.3012C48.3326 33.3917 48.0056 32.9847 48.0056 31.9199C48.0056 31.0252 48.143 30.218 48.143 29.2067V29.1105C48.143 28.7141 47.7643 27.6684 47.4799 27.6684C47.1769 27.6684 47.0577 27.9471 47.025 28.3175C47.0064 28.5282 47.0233 28.698 46.9351 28.8981C46.8893 29.0021 46.764 29.1214 46.7361 29.2259C46.6109 29.6998 46.4556 29.9192 46.34 30.021C46.055 30.2721 45.9035 30.5745 45.8169 30.841C45.607 31.4846 45.8277 31.9192 45.4534 32.1165C45.2169 32.2415 44.982 32.0363 44.8786 31.8411C44.7811 31.6564 44.6502 31.422 44.5201 31.2037C44.3806 30.9692 44.2678 30.8459 44.1583 30.6541C43.8967 30.1951 43.9251 29.8822 44.2536 29.4564C44.4274 29.2303 44.7063 29.0345 44.8987 28.7719C45.0479 28.5673 45.1331 28.2489 45.2174 28.0139C45.6337 26.8594 45.7127 27.2874 45.7601 26.5891C45.7742 26.3784 45.6473 26.0434 45.6473 25.361C45.6473 23.9312 46.3409 23.0947 45.9803 21.9806C45.661 20.9919 45.3678 20.4827 45.2556 19.6346C45.2241 19.3967 45.2066 19.1331 45.2066 18.8244V18.7283C45.2066 17.946 43.7774 16.844 43.7915 14.7579C43.7926 14.6611 43.8078 14.4908 43.6047 14.4876C43.5061 14.4859 43.4695 14.576 43.4341 14.7441L43.3115 15.8444L43.2903 16.5172C43.2903 17.4937 43.8803 18.1379 43.8803 19.0164C43.8803 19.1778 43.7813 19.5544 43.6515 19.8679C43.5372 20.1438 43.3905 20.3477 43.3666 20.6508C43.3017 21.4758 42.9328 21.9148 42.9328 22.3814C42.9328 22.7401 43.2173 23.0692 43.2173 23.2461C43.2173 23.7736 42.9323 24.0263 42.7029 24.3592C42.3559 24.8623 42.4594 25.0465 42.3461 25.7271C42.2398 26.3651 41.9107 26.8257 41.6367 27.0833C41.3255 27.3752 41.0635 27.4338 40.8885 27.6977C40.554 28.2042 40.9741 28.4176 40.4003 28.9434C40.074 29.2739 39.887 29.4763 39.3896 29.6484C39.2141 29.7087 38.7286 29.7988 38.2372 29.9409C37.6046 30.1244 36.9469 30.3599 36.7763 30.3599C36.5545 30.3599 36.2565 30.2311 36.2805 30.0077C36.3306 29.5361 36.796 29.7257 37.0924 29.4316C37.2635 29.2618 37.361 28.7853 37.4994 28.4988C37.8225 27.8271 38.2241 27.4522 38.8218 27.0529C39.619 26.5205 39.6555 26.4282 39.8174 25.3289C39.9634 24.4537 40.6592 24.0014 40.6592 23.4386C40.6592 22.7967 40.3703 22.5749 40.5725 22.1054C40.6842 21.845 40.8548 21.6896 41.0062 21.495C41.4312 20.9488 41.2421 20.2538 41.1609 19.6113C41.0808 18.9789 40.9735 18.3314 40.906 18.093C40.6646 17.241 40.2821 16.3757 40.1894 15.4562C40.1065 14.6351 39.5563 13.9545 39.371 12.8254C39.1138 11.7656 38.746 11.389 38.1232 10.7276C37.5522 10.1222 37.2449 9.3431 36.7942 8.61553C36.2613 7.88018 36.2515 6.83017 36.0347 6.02125C35.9328 5.47006 35.7487 4.82206 35.5983 4.32C35.3722 3.56859 35.3123 3.02783 35.3079 2.23005C35.3046 1.69097 35.3199 1.14086 35.3559 0.66313C35.3542 -0.068388 35.0126 -0.305637 34.7548 0.525454C34.6192 0.96113 34.6458 1.57486 34.5435 2.04421C34.3654 2.85697 33.9332 3.44362 33.9332 4.4052L33.9329 4.40556Z" fill="#074E2F"/>
<path fill-rule="evenodd" clip-rule="evenodd" d="M34.6897 35.9369C34.2205 35.9369 33.8413 35.943 33.5063 35.9115C32.866 35.8517 32.5146 35.686 31.7321 36.204C31.4493 36.3858 31.0771 36.7132 30.7073 36.9846C30.3601 37.2395 30.0147 37.438 29.7471 37.6415C29.4851 37.8411 29.1298 38.1679 28.8443 38.5699C28.6269 38.875 28.4089 39.4224 28.2248 39.7923C27.7879 40.6687 27.4903 41.4654 27.4903 42.2815V42.5695C27.4903 43.4564 27.8586 44.2731 27.9899 45.1296C28.124 46.0032 28.0554 46.8923 28.5021 47.4119C28.8786 47.8498 29.2563 47.6281 29.7308 48.4105C29.8796 48.6565 30.0774 48.8556 30.2321 49.0558C30.3875 49.2554 30.5003 49.4566 30.6947 49.5982C30.8985 49.7453 31.1122 49.8554 31.439 49.9156C32.2814 50.0711 32.5071 49.7287 33.0661 50.4293C33.351 50.7859 33.4398 50.9142 33.8676 50.9329C34.1848 50.9467 34.6109 50.7842 35.0626 50.5846C35.5633 50.3634 35.8102 50.5199 36.1693 50.3827C36.7327 50.1676 37.2705 49.8597 37.4639 49.7104C37.878 49.3897 38.2971 49.0292 38.5668 48.5802C38.7395 48.2928 38.8125 47.9686 38.9138 47.596C38.9999 47.2781 39.1427 46.8999 39.1427 46.5106V46.0301C39.1427 45.2096 38.7705 43.7383 38.1635 43.6217C37.5418 43.5022 37.4274 43.7998 36.7061 43.2429C36.5998 43.1605 36.4991 42.9997 36.3687 42.8604C36.2445 42.7271 36.1965 42.5026 35.9612 42.4733C35.34 42.3965 35.0038 42.7652 34.6436 42.742C34.0655 42.7045 33.8721 42.8874 33.8148 42.9312C33.6131 43.0871 33.2623 43.4089 33.0793 43.8407C32.8173 44.46 32.7562 45.2882 33.1256 45.2611C33.7358 45.2169 34.072 44.4583 34.5868 44.4816C35.0141 44.501 36.0247 45.1113 36.0247 45.7156L36.016 46.2226C36.016 47.0216 35.1938 47.2891 34.6517 47.6253C34.5062 47.7155 34.0218 48.0206 33.5951 48.2706C32.8971 48.6786 32.7533 48.8727 32.1157 48.1904C31.8258 47.8808 31.5355 47.46 31.1895 47.1145C30.8909 46.8159 30.5639 46.614 30.3454 46.3736C30.1127 46.1176 29.9755 45.8372 29.9531 45.5631V44.601C29.9531 44.1598 29.988 44.0332 30.2097 43.634C30.3704 43.3443 30.584 42.9723 30.7775 42.6051C31.0652 42.0611 31.3486 41.329 31.4352 41.1311C31.5905 40.7772 32.0351 40.4206 32.4836 40.1341C32.9755 39.819 33.4992 39.5691 34.0369 39.5691C34.3781 39.5691 34.6657 39.782 34.9741 39.782C35.5948 39.782 36.023 39.4607 36.679 39.4601H37.705C38.4739 39.4601 38.6483 40.2663 39.0705 40.7197C39.5511 41.236 39.6541 41.3163 39.956 41.3881C40.1369 41.4312 40.4393 41.3638 40.8066 41.6712C40.9973 41.831 41.158 42.9435 41.3291 43.4268C41.6081 44.223 42.0637 43.6435 42.0637 44.825C42.0637 45.5111 42.1394 46.1155 42.105 46.6607C41.9868 48.5234 41.4587 49.7033 40.3397 51.1437C39.9218 51.6822 38.8304 52.6464 38.0669 52.8217C37.1718 53.0274 37.2937 52.6525 36.3648 53.1131C35.5105 53.5361 35.6689 53.336 34.7846 53.336H34.4059C33.7646 53.336 33.4524 53.7209 32.5108 53.7209H32.3218C31.6401 53.7209 31.3029 53.2924 30.8643 52.9887C30.3406 52.6277 29.7005 52.746 29.2291 52.437C28.4793 51.9444 27.9977 50.5687 27.3269 49.945C26.8088 49.4634 26.461 49.8295 26.035 49.0455C25.7538 48.5268 25.6329 48.0353 25.2416 47.6389C24.851 47.2424 24.4542 46.9704 24.2249 46.4296C24.0963 46.1272 23.9798 44.9522 23.5013 44.9522C23.0594 44.9522 22.9434 45.7407 22.9434 46.2228V47.1838C22.9434 48.1028 23.3688 48.1526 23.8211 48.6003C24.3261 49.0996 24.3289 49.422 24.5653 50.1518C24.7293 50.6577 24.9071 50.9613 25.1222 51.1797C25.563 51.6259 26.0982 51.6978 26.5427 52.7594C27.8995 55.5576 28.0587 54.0433 28.8182 55.065C29.2143 55.5677 29.3178 55.974 30.0452 56.1582C31.2548 56.4767 31.3855 56.093 32.3031 56.093C32.884 56.1891 33.468 56.328 34.0555 56.3605C34.6178 56.3921 35.1086 56.3174 35.6705 56.2853C36.3173 56.2748 36.5472 56.5087 36.9635 56.5087C37.7356 56.5087 38.4608 55.5035 39.083 55.5372C39.6033 55.5655 40.0605 55.3924 40.4501 55.1337C40.7345 54.9451 40.9776 54.6133 41.4189 54.4016C42.1626 54.0444 42.4864 53.9587 43.0133 53.2819C44.0179 52.451 44.1052 51.5336 44.5966 50.796C44.8636 50.3055 45.3759 50.0341 45.6979 49.5951C46.0956 49.0544 46.0199 48.6396 45.8723 48.0381C45.7753 47.6412 45.662 47.2768 45.6103 46.8804C45.5732 46.5983 45.5563 46.4171 45.5548 46.0305C45.5537 45.6109 45.8228 45.6756 45.7738 44.6654C45.7411 43.1211 45.4022 43.3975 45.0622 42.586C44.7734 41.8964 44.7838 41.3828 44.4176 40.6779C44.0204 39.9149 43.8178 39.8165 43.0723 39.4775C42.0256 39.0634 42.3939 39.1188 41.6316 38.4099C40.9865 37.8332 40.4792 37.314 40.0036 36.9972C39.7176 36.807 39.4484 36.7545 39.1803 36.6832C38.928 36.6158 38.7493 36.4299 38.5107 36.3553C38.2039 36.2592 38.0018 36.4024 37.5365 36.1452C37.2706 35.9976 36.973 35.8982 36.6805 35.7438C35.7656 35.2617 35.3298 35.9374 34.6902 35.9374L34.6897 35.9369Z" fill="#074E2F"/>
<path fill-rule="evenodd" clip-rule="evenodd" d="M25.1232 55.7421C25.1232 56.2497 25.3672 56.5028 25.3852 56.8103C25.4135 57.2781 25.0566 57.3538 25.3372 57.926C25.6478 58.5596 26.2603 58.464 26.5273 59.5085C26.7551 60.4009 27.0514 60.7078 27.3974 61.4127C27.738 62.1066 27.7886 62.888 28.3461 63.3137C28.4872 63.4215 28.6915 63.5747 28.9667 63.5956C30.4013 63.7056 30.4569 62.6093 31.2339 62.5452C31.7124 62.5059 31.7341 62.7596 32.1336 62.7596C32.4871 62.7596 32.9945 62.1896 33.2134 61.9651C33.5894 61.5785 33.8122 61.577 34.2983 61.5946C34.8779 61.615 35.0513 61.4685 35.4147 60.9798C35.6713 60.6347 35.8136 60.2504 36.1296 59.9099C36.4788 59.4399 37.1463 59.4499 37.1544 59.0103C37.1544 58.4739 36.3502 58.6133 36.0298 58.7162C35.322 58.9429 35.1149 59.4455 34.6834 59.3818C34.2867 59.3939 34.0872 59.2304 33.7816 59.2154C33.5147 59.2027 33.2831 59.3226 32.9861 59.2989C32.5349 59.2697 32.4696 58.7101 31.6402 58.7173C31.134 58.7217 30.9249 58.8638 30.3783 58.7848C29.549 58.6642 29.6117 58.0731 28.0789 57.6203C27.8446 57.534 27.6643 57.4025 27.454 57.1874C27.2148 56.944 27.0322 56.6384 26.7685 56.3658C26.5703 56.1606 26.289 55.9942 26.0401 55.8411C25.8902 55.7493 25.7616 55.668 25.6314 55.5856C25.3252 55.3916 25.123 55.3142 25.123 55.7421H25.1232Z" fill="#074E2F"/>
<path fill-rule="evenodd" clip-rule="evenodd" d="M5.98699 28.9157C5.98699 27.5051 7.51698 27.1314 8.24118 26.3967C8.6684 25.9627 8.80183 25.4214 9.30037 25.0681C10.2545 24.3918 10.2697 24.9005 11.2118 24.6047C13.1232 24.0032 13.055 25.5418 14.3186 25.8199C14.779 25.9217 15.1158 25.9394 15.4253 26.1003C16.107 26.4548 16.502 27.137 16.502 28.3391C16.502 28.8406 16.3129 28.8953 16.3129 29.3001C16.3129 29.7385 16.6944 29.9729 17.0703 29.9729C17.5514 29.9729 18.0179 29.4676 18.0179 28.9158C18.0179 27.9542 17.3749 27.0287 17.1188 26.426C16.9434 26.0124 17.285 25.8958 17.558 26.1363C17.8544 26.3973 18.2303 26.896 18.3551 27.1188C18.5884 27.534 18.8406 28.0908 18.8608 28.6813C18.9066 30.0619 18.0974 31.2231 16.6884 31.2231H16.4073C15.3256 31.2231 14.2179 28.8196 11.3868 28.8196C10.2201 28.8196 9.52922 29.0861 8.80939 29.5693C8.40673 29.8396 8.3125 30.0471 7.90488 30.286C7.55725 30.4894 7.07559 30.7647 6.72087 30.7034C6.11984 30.5994 5.98688 29.8061 5.98688 29.2609V28.9159L5.98699 28.9157ZM9.43109 22.3106C9.43109 22.8536 9.81356 23.2329 10.3573 23.3766C11.264 23.616 12.6191 23.385 13.3983 23.5099C14.9877 23.7647 16.6915 24.013 16.6915 22.0906V21.2252C16.6915 19.7279 14.0989 20.0193 12.613 20.0669C11.6252 20.0984 11.5315 20.831 11.0776 21.2965C10.6717 21.7129 9.43097 21.704 9.43097 22.3106H9.43109ZM15.8524 8.83506C15.8616 8.62777 15.9118 8.43701 16.0481 8.26782C16.2507 8.01571 16.9313 7.67122 17.3546 7.67122C18.0641 7.67122 18.7174 8.15171 19.1543 8.15171H19.4388C20.0442 8.15171 19.9586 7.67122 20.6701 7.67122C21.4956 7.67122 22.38 8.15555 22.927 8.67258C23.2812 9.00701 23.3074 9.30117 22.9139 9.68988C22.7701 9.83199 22.2732 9.97026 22.0254 9.97853C21.4347 9.99674 20.8146 9.64566 20.3858 9.70318C19.8137 9.78058 19.775 10.2273 19.7755 10.459C19.7778 11.2022 20.4207 11.7423 21.6167 12.2858C21.9339 12.4301 22.3071 12.576 22.5643 12.8321C22.9522 13.2187 23.0758 13.771 22.3403 14.2681C21.5546 14.7989 20.5204 14.8812 19.2493 14.8812C18.706 14.8812 17.8696 14.8303 17.3607 14.8873C16.8431 14.9453 16.4224 15.1693 15.8388 15.1693C14.8401 15.1693 12.4137 15.2274 12.3337 13.6311C12.3118 13.1965 12.6213 12.9516 13.0169 12.5695C13.4016 12.1979 13.7339 11.8569 13.9595 11.7611C14.6363 11.4621 15.3538 11.4039 15.665 10.7936C15.8667 10.3977 15.9363 10.0885 15.9261 9.77004C15.9167 9.48857 15.8361 9.19944 15.8525 8.83506H15.8524ZM18.9653 3.92197C18.3212 3.92197 18.0841 4.49041 17.4249 4.60148C16.6566 4.59261 16.4055 4.81992 16.2246 5.01787C15.9516 5.31754 15.8213 5.26278 15.4362 5.27057C14.779 5.28327 14.3747 5.36296 14.0385 5.84452C13.9612 5.9556 13.7884 6.15858 13.5836 6.29626C13.455 6.38193 13.2894 6.37594 13.1498 6.44603C12.9183 6.56262 12.7167 6.74236 12.5668 6.82527C11.2056 7.57608 11.84 7.75414 11.4809 8.2562C11.0841 8.79528 10.3181 8.16717 9.99718 9.2415C9.79502 9.68496 9.63053 9.54944 9.30734 9.7662C9.06374 9.92988 8.99348 10.2605 8.79451 10.5204C8.48077 10.9351 7.98057 11.0258 7.56752 11.766C7.09023 12.4206 6.64235 12.4278 6.14215 12.9111C5.18427 13.9958 5.78578 13.8753 5.68884 14.6311C5.67632 15.0801 5.49058 15.2068 5.25784 15.4532C4.96358 15.7656 4.62197 16.0881 4.42583 16.2998C5.1897 16.5193 5.92595 16.5165 6.67624 16.6249C7.54851 16.6569 7.96262 16.3241 9.45069 16.391C10.0789 16.391 10.3961 16.8173 10.8604 16.8173C11.318 16.8173 11.4325 16.5303 11.9027 16.4889C12.8916 16.4982 13.6294 16.7078 14.8303 16.7754L16.0285 16.8035C17.1847 16.8035 18.1197 16.3668 19.4612 16.3585C20.3793 16.3027 21.4342 16.5349 23.2279 16.515H24.8386C24.8004 16.9822 24.4005 17.3504 23.8529 17.555C23.355 17.7419 22.7337 17.7795 22.1518 17.9017C21.674 18.0017 21.2414 18.1643 20.8953 18.2815C19.6514 18.704 17.7797 19.3028 16.2182 19.3028H11.5759C10.0033 19.3028 8.75283 19.0779 7.42937 18.8002C6.65404 18.6376 5.14365 18.1201 4.26418 17.826C3.87734 17.6966 3.53183 17.6866 3.40053 18.1688C3.33074 18.4236 3.33464 18.7383 3.33464 18.9185C3.33464 19.2861 3.38801 19.5455 3.39568 19.7943C3.41576 20.4312 3.32318 20.8149 2.64704 21.3927C2.24816 21.7333 0.993896 22.3929 0.966147 23.0277C0.952568 23.344 1.12249 23.5862 1.20798 23.861C1.31756 24.2153 1.30551 24.7551 1.21188 25.2134C1.09037 25.8077 0.294851 26.6321 0.295323 27.4096C0.295323 28.2744 1.08647 28.6669 1.06097 29.5615C1.03747 30.3893 0.326379 30.4612 0.312327 31.1649C0.302998 31.6255 0.698101 31.6647 0.689835 32.3293C0.681687 32.994 0.0866722 33.3882 0 34.0009V34.5294C0 35.1529 0.340549 35.4577 0.702352 35.4677C0.983977 35.4755 1.26525 35.3328 1.60686 35.1625C1.8984 35.0171 2.18877 34.8927 2.43013 34.7267C2.61752 34.5979 2.77623 34.4248 2.88238 34.3209C3.1679 34.0411 3.58096 33.7336 4.17314 33.5291C4.8292 33.3024 6.27641 33.1924 7.08386 33.4739C7.43362 33.5961 7.70556 33.7708 8.07551 33.8139C8.63132 33.8786 8.79097 33.7061 9.27487 33.9427C9.629 34.1164 9.86658 34.2634 10.1286 34.364C10.4262 34.478 10.7482 34.5426 11.1628 34.7179C11.8591 35.0125 11.9403 35.6252 12.8513 35.6296C13.2371 35.6313 13.5614 35.6318 13.7842 35.6888C14.3187 35.8248 14.4157 36.2212 15.1758 36.2212C15.676 36.2212 15.895 35.9331 16.5968 35.9331C17.2583 35.9331 18.1126 36.2992 18.1126 36.9903C18.1126 37.8883 17.9198 38.7336 17.425 39.333C17.0159 39.829 16.4116 40.2011 15.5549 40.163C15.3103 40.163 15.1049 40.0308 14.948 39.8405C14.7686 39.6238 14.6816 39.3402 14.4843 39.1134C14.1106 38.6833 14.0414 38.7099 13.5291 38.7171L13.1863 38.7209H12.7128C11.5228 38.7209 11.2739 37.3773 10.6216 37.3094C10.1252 37.2574 9.75688 37.7628 9.2235 37.7512C9.10082 37.7484 8.98592 37.6915 8.86879 37.6251C8.40945 37.3646 8.2008 36.4884 7.59704 36.5099C7.3617 36.5182 7.16014 36.6929 6.81841 36.8378C6.60267 36.9296 6.42224 36.9643 6.20167 37.07C5.78921 37.2675 5.59685 37.4709 5.32385 37.4709C4.94728 37.4709 4.84762 37.2791 4.47106 37.2791C4.0684 37.2791 3.59548 37.4184 3.15137 37.69C2.05994 38.3572 1.01598 39.6589 0.407383 40.4562C0.252577 40.6586 0.189404 40.6834 0.283161 40.9179C0.395929 41.1993 0.377508 41.2226 0.69078 41.2087C1.25958 41.1821 1.41876 40.92 1.84869 40.7028C2.02794 40.6121 2.23931 40.6121 2.42682 40.5302C2.66818 40.4247 2.88781 40.2382 3.12811 40.1388C3.96779 39.7898 4.50223 39.797 5.28086 40.0707C5.69061 40.2145 5.84919 40.075 6.12869 40.1962C6.62015 40.4085 6.93342 41.124 7.59716 41.124H8.16549C8.95286 41.124 9.58212 40.827 10.2159 41.2544C10.7046 41.579 10.9858 42.2038 11.4228 42.5295C11.4849 42.576 11.7061 42.8363 12.6193 43.0448C13.3652 43.2157 14.2066 44.0346 15.0102 43.9838C15.5927 43.9472 15.5868 43.6957 15.8472 43.6957C16.2449 43.6957 16.6056 44.0789 16.5892 44.3365C16.5838 44.817 16.3266 44.8392 16.2977 45.5447C16.2868 46.066 16.5205 46.4029 16.4073 46.8921C15.5327 46.6853 15.5626 47.0845 14.9861 47.0845H14.6075C13.9667 47.0845 13.522 46.6174 12.9472 46.3896C12.149 46.0876 11.8672 46.158 11.3606 45.4768C10.7737 44.6877 11.0069 44.5257 9.86646 44.5894C9.39295 44.5766 9.26223 44.3483 8.90645 44.3118C8.6083 44.2814 8.30376 44.4888 7.8815 44.4888C7.37257 44.4888 7.11869 43.9586 6.36675 43.9116C5.32054 43.9497 5.35974 43.5997 4.37636 43.6241C3.7824 43.6241 3.02066 44.1731 2.2791 44.4125C1.99193 44.5055 1.98649 44.5584 2.0492 44.8277C2.25407 45.7063 2.77009 47.1659 3.0686 47.8427C3.23533 48.2225 3.23864 48.1888 3.62276 48.2451C4.14208 48.3215 4.53766 48.5249 5.07977 48.5194C5.57619 48.5194 5.79464 48.4293 6.21855 48.427C6.97593 48.4231 7.64498 48.5642 8.28085 48.986C8.83064 49.4891 8.96963 49.2597 9.5918 49.5471C10.3731 49.9082 10.4996 50.0526 10.76 50.0509C11.0205 50.0486 11.0618 49.968 11.3294 49.968C12.0759 49.968 12.2312 50.2482 12.7439 50.5131C13.3891 50.8465 13.7328 50.6823 14.475 50.8714C15.2394 51.066 15.641 51.1213 16.1548 51.1009C17.1404 51.0616 17.6827 51.515 17.7421 51.9523C17.7475 52.2255 17.7187 52.278 17.7247 52.5512C17.7051 52.9349 17.8773 53.2164 17.923 53.5249C17.9828 53.9301 17.8194 54.231 17.6233 54.3488C17.1841 54.6125 16.3384 54.3903 15.6492 54.3903C15.2197 54.3903 14.9245 54.4865 14.6788 54.4837C14.2674 54.4788 13.8276 54.3643 13.0359 53.8727C12.4807 53.5283 12.4219 53.918 11.7326 53.4625C11.4198 53.2844 10.93 52.8521 10.5339 52.8521C10.1977 52.8521 10.0739 52.9472 9.8778 52.9278C9.17273 52.8582 9.10519 52.4955 8.84954 52.1471C8.42184 51.5642 8.19466 51.6008 7.61322 51.7998C7.33643 51.8944 7.05422 51.9867 7.02859 51.9867C6.69183 51.9867 6.499 51.7949 6.27063 51.7949C6.11747 51.7949 5.95676 51.8391 5.8107 51.9017C5.50227 52.0338 5.51868 52.266 5.68104 52.5645C6.12621 53.384 6.93259 54.9211 7.90417 55.9053C8.57169 56.5815 8.87681 56.8424 10.0047 56.6362C10.9872 56.4565 11.8012 57.4661 12.3335 57.4661C12.7683 57.4661 12.8707 57.1781 13.4707 57.1781H13.565C13.9323 57.1781 14.2549 57.4938 14.615 57.7205C15.167 58.0683 15.4203 57.9561 15.8911 57.5491C16.0639 57.3994 16.2083 57.1334 16.4202 56.9547C17.2119 56.2868 18.2456 55.6941 18.7768 56.1155C18.9621 56.2625 19.1593 56.4915 19.1583 56.9824C19.2776 58.18 20.2361 58.4747 19.4607 59.5075C19.1888 59.8332 18.8935 59.836 18.2457 60.2407C17.6659 60.6028 17.5864 60.7505 17.1652 60.735H16.8814C15.8155 60.735 14.6801 59.9178 14.3237 59.8696C14.1401 59.8448 14.0519 60.0068 14.0736 60.1649C14.1282 60.563 14.7541 61.0468 15.4141 61.3796C15.748 61.5478 16.0679 61.6766 16.2744 61.7352C16.4924 61.7971 16.7179 61.7982 16.8755 61.89C17.7118 62.3793 17.9189 63.0417 18.8708 63.0417H19.1547C20.2509 63.0417 20.2815 62.3926 21.2317 62.878C21.6098 63.0711 22.4092 64.0624 22.8969 63.9921C23.2331 64.0104 23.3671 63.8748 23.6385 63.8158C23.7807 63.7848 23.9998 63.7831 24.221 63.818C24.4842 63.8589 24.7571 63.5045 24.7304 63.2601C24.7304 62.8554 23.899 61.3675 23.6989 61.0258C23.1628 60.1086 22.9999 59.784 22.6468 58.6334C22.1003 56.8553 21.125 55.6244 20.7082 53.6794C20.476 52.5946 20.5719 51.653 20.2107 50.7236C19.8385 49.7664 19.4893 49.3899 19.4354 48.0497C19.4037 47.2706 19.5404 45.5567 19.649 44.798C19.7029 44.4187 19.8669 43.758 19.9095 43.325C19.9514 42.9048 19.7231 42.2457 19.7231 41.7974C19.7231 41.0692 20.0011 40.419 20.0114 39.6864C19.9847 38.5076 19.9363 38.4861 20.3427 37.6634C20.6097 37.1231 20.8445 36.6394 20.9317 36.1976C21.0978 35.3544 21.0264 34.634 21.3692 33.7587C21.6138 33.1333 21.8525 32.9132 22.1053 32.1021C22.3058 31.458 22.2655 30.6083 22.3636 29.8325C22.4916 28.8162 22.7036 28.9577 23.2322 28.3651C23.6991 27.8415 23.8005 27.6998 23.7722 27.3295C23.759 27.1614 23.6805 26.9801 23.6805 26.6328V25.9799C23.6326 24.4577 25.1163 25.1157 24.7818 23.2065C24.6684 22.5816 24.7676 22.0304 24.955 21.7032C25.2889 21.1199 25.8807 20.9396 25.8807 20.1251C25.8807 19.5114 25.5751 19.3931 25.5751 19.0148C25.5751 18.5024 26.2323 18.2966 26.26 17.9578C26.3041 17.4126 26.1004 17.4866 26.0654 16.993C26.0087 16.1796 25.9418 15.4017 25.9717 14.401L25.9656 13.5666C25.9656 12.9114 26.3689 12.5781 26.3546 11.8056C26.3498 11.5524 26.3906 11.2892 26.3235 11.0415C25.9994 9.84121 25.4425 7.50682 25.0639 6.14827C24.9059 5.58271 24.9336 4.83849 24.5816 4.16065C24.294 3.60611 23.9284 3.28367 23.5126 3.25H23.1334C22.3221 3.25 21.7467 3.53422 21.0395 3.62481C19.7073 3.6834 19.9562 4.20259 18.9657 3.92281L18.9653 3.92197Z" fill="#074E2F"/>
<path d="M69.4586 35.9123V40.7542C68.8433 40.0796 68.2275 39.588 67.6162 39.2732C67.0061 38.9592 66.3481 38.7996 65.6523 38.7996C64.3604 38.7996 63.3141 39.2355 62.5149 40.1032C61.7148 40.9748 61.3149 42.1076 61.3149 43.5057C61.3149 44.809 61.7222 45.889 62.5377 46.7485C63.3532 47.6089 64.3915 48.0367 65.6523 48.0367C66.3483 48.0367 67.0061 47.8782 67.6162 47.5631C68.2275 47.2483 68.8431 46.7525 69.4586 46.0697V50.924C68.7432 51.2613 68.0358 51.5182 67.3287 51.689C66.6244 51.8597 65.9099 51.9429 65.1905 51.9429C64.2874 51.9429 63.4562 51.8372 62.6955 51.625C61.9347 51.4167 61.2304 51.0946 60.5923 50.6659C59.3624 49.8513 58.4242 48.8282 57.7778 47.5937C57.1312 46.3544 56.8086 44.9645 56.8086 43.4183C56.8086 42.1756 57.0128 41.046 57.4241 40.027C57.8314 39.0081 58.451 38.0878 59.2779 37.2578C60.0583 36.4663 60.9389 35.8751 61.9193 35.481C62.8954 35.0909 63.9873 34.8938 65.1905 34.8938C65.9101 34.8938 66.6247 34.9771 67.3287 35.1479C68.0358 35.3185 68.7432 35.5753 69.4586 35.9123ZM79.0716 45.9599C79.0716 45.1226 78.856 44.4634 78.4292 43.983C78.0023 43.5013 77.4218 43.2626 76.695 43.2626C75.9568 43.2626 75.3763 43.5013 74.9536 43.983C74.5266 44.4636 74.3153 45.1228 74.3153 45.9599C74.3153 46.798 74.5266 47.4533 74.9453 47.9308C75.369 48.4072 75.9494 48.6459 76.695 48.6459C77.4301 48.6459 78.0105 48.4072 78.4333 47.9308C78.8602 47.4533 79.0716 46.798 79.0716 45.9599ZM83.0584 45.9599C83.0584 46.7674 82.8976 47.5325 82.5778 48.2558C82.2592 48.9832 81.7974 49.6353 81.1901 50.2113C80.5706 50.7864 79.8829 51.2263 79.121 51.5219C78.3602 51.8174 77.5487 51.9649 76.695 51.9649C75.8227 51.9649 75.0072 51.8176 74.2422 51.5219C73.4814 51.2263 72.7998 50.7864 72.201 50.2113C71.5968 49.6505 71.139 49.0023 70.8247 48.2749C70.5092 47.5433 70.3514 46.7743 70.3514 45.9596C70.3514 45.1378 70.5092 44.3645 70.8206 43.6413C71.1319 42.9139 71.5897 42.2626 72.2012 41.6864C72.793 41.1175 73.4694 40.6858 74.231 40.3982C74.996 40.1096 75.8147 39.9665 76.6952 39.9665C77.5715 39.9665 78.3913 40.1096 79.1489 40.3982C79.9097 40.6858 80.586 41.1175 81.1904 41.6864C81.8048 42.2696 82.2709 42.9249 82.5863 43.6523C82.9009 44.3766 83.0584 45.1461 83.0584 45.9599ZM85.0358 51.5334V43.1184H83.3254V40.3225H85.0358V38.0266C85.0358 36.723 85.3975 35.7417 86.1163 35.0823C86.8348 34.4231 87.9153 34.0938 89.3461 34.0938C89.5492 34.0938 89.7914 34.1131 90.0721 34.1506C90.3536 34.1842 90.6565 34.238 90.9803 34.306V37.3254C90.7989 37.2573 90.634 37.2085 90.4803 37.1741C90.3265 37.1395 90.1844 37.1252 90.0575 37.1252C89.6802 37.1252 89.4069 37.2351 89.2338 37.4583C89.0615 37.6818 88.977 38.0374 88.977 38.5343V40.3223H90.9803V43.1182H88.977V51.5332L85.0358 51.5334ZM92.4113 51.5334V43.1184H90.6999V40.3225H92.4113V38.0266C92.4113 36.723 92.7722 35.7417 93.4918 35.0823C94.2104 34.4231 95.2909 34.0938 96.7208 34.0938C96.925 34.0938 97.1672 34.1131 97.4476 34.1506C97.728 34.1842 98.0323 34.238 98.355 34.306V37.3254C98.1747 37.2573 98.0098 37.2085 97.8549 37.1741C97.7012 37.1395 97.5591 37.1252 97.4322 37.1252C97.0557 37.1252 96.7827 37.2351 96.6096 37.4583C96.4362 37.6818 96.3517 38.0374 96.3517 38.5343V40.3223H98.355V43.1182H96.3517V51.5332L92.4113 51.5334ZM107.234 44.4828C107.158 43.8456 106.911 43.3388 106.496 42.9517C106.08 42.5697 105.566 42.3758 104.957 42.3758C104.304 42.3758 103.785 42.5506 103.396 42.9031C103.012 43.2556 102.754 43.7818 102.624 44.4828H107.234ZM111.186 46.7148H102.536C102.543 47.5823 102.769 48.2487 103.212 48.7181C103.654 49.1886 104.281 49.4231 105.092 49.4231C105.7 49.4231 106.215 49.3093 106.631 49.0858C107.049 48.8581 107.365 48.5208 107.585 48.0781L110.602 49.2789C110.241 50.1353 109.602 50.7987 108.688 51.2641C107.772 51.7304 106.649 51.9651 105.319 51.9651C103.336 51.9651 101.747 51.4237 100.548 50.3407C99.3521 49.2566 98.752 47.8242 98.752 46.0473C98.752 44.3051 99.3521 42.8533 100.548 41.6981C101.747 40.542 103.263 39.9669 105.093 39.9669C106.976 39.9669 108.465 40.5501 109.553 41.7203C110.64 42.8877 111.187 44.4898 111.187 46.5248L111.186 46.7148ZM120.603 44.4828C120.526 43.8456 120.281 43.3388 119.865 42.9517C119.45 42.5697 118.934 42.3758 118.327 42.3758C117.673 42.3758 117.155 42.5506 116.766 42.9031C116.382 43.2556 116.124 43.7818 115.993 44.4828H120.603ZM124.556 46.7148H115.905C115.913 47.5823 116.139 48.2487 116.582 48.7181C117.024 49.1886 117.651 49.4231 118.462 49.4231C119.069 49.4231 119.585 49.3093 119.999 49.0858C120.419 48.8581 120.734 48.5208 120.953 48.0781L123.972 49.2789C123.61 50.1353 122.972 50.7987 122.057 51.2641C121.141 51.7304 120.019 51.9651 118.689 51.9651C116.704 51.9651 115.117 51.4237 113.918 50.3407C112.722 49.2566 112.121 47.8242 112.121 46.0473C112.121 44.3051 112.722 42.8533 113.918 41.6981C115.117 40.542 116.631 39.9669 118.462 39.9669C120.346 39.9669 121.833 40.5501 122.922 41.7203C124.01 42.8877 124.556 44.4898 124.556 46.5248V46.7148Z" fill="#074E2F"/>
<path d="M58.7723 22.0352C59.5579 22.9108 60.3341 23.5691 61.0971 24.0011C61.8601 24.437 62.6177 24.6554 63.3765 24.6554C64.0807 24.6554 64.6632 24.4685 65.1148 24.0946C65.5705 23.7208 65.7962 23.2494 65.7962 22.6752C65.7962 22.0392 65.6023 21.5497 65.2097 21.2071C64.8169 20.8648 63.9272 20.5092 62.5456 20.1446C60.6495 19.6415 59.3092 18.9832 58.5236 18.1777C57.7381 17.369 57.3453 16.2604 57.3453 14.8556C57.3453 13.031 57.964 11.5416 59.2051 10.3895C60.4424 9.23734 62.0495 8.66336 64.0217 8.66336C65.092 8.66336 66.1032 8.80559 67.0601 9.08608C68.0169 9.37054 68.92 9.79722 69.7779 10.3712L68.1252 14.1118C67.5251 13.6099 66.9107 13.227 66.2786 12.9689C65.6467 12.7158 65.024 12.587 64.4105 12.587C63.7733 12.587 63.259 12.7382 62.8622 13.0361C62.464 13.3338 62.2663 13.7208 62.2663 14.1882C62.2663 14.6689 62.4426 15.0506 62.79 15.3362C63.1374 15.6248 63.8097 15.8961 64.8035 16.1592L65.0428 16.2252C67.1955 16.795 68.6089 17.4271 69.2853 18.1118C69.746 18.5832 70.0936 19.144 70.3327 19.8023C70.5717 20.4555 70.6893 21.1849 70.6893 21.9815C70.6893 24.0052 70.0172 25.6338 68.6675 26.8619C67.3169 28.0933 65.5209 28.7078 63.2724 28.7078C61.9229 28.7078 60.6949 28.4804 59.5887 28.0312C58.4834 27.5781 57.4174 26.8698 56.3926 25.9049L58.7723 22.0352ZM81.6777 19.922C81.5878 19.1743 81.2994 18.579 80.8117 18.1248C80.3239 17.6757 79.7189 17.4482 79.0052 17.4482C78.2382 17.4482 77.6289 17.6534 77.1731 18.0669C76.7216 18.4804 76.4184 19.099 76.2658 19.922H81.6777ZM86.3192 22.5422H76.1619C76.1711 23.5612 76.4372 24.3434 76.9569 24.8952C77.4754 25.4469 78.2114 25.7232 79.1643 25.7232C79.8768 25.7232 80.4819 25.5891 80.9696 25.3269C81.4614 25.0599 81.8314 24.6646 82.0892 24.1433L85.6328 25.5535C85.2089 26.5592 84.4596 27.3375 83.3853 27.885C82.3111 28.4317 80.9924 28.7078 79.4304 28.7078C77.1014 28.7078 75.2365 28.0717 73.828 26.7989C72.424 25.527 71.7197 23.8456 71.7197 21.7589C71.7197 19.7129 72.424 18.009 73.828 16.6528C75.2363 15.2954 77.015 14.6198 79.1643 14.6198C81.3758 14.6198 83.1233 15.3045 84.4008 16.679C85.6781 18.0495 86.3194 19.9311 86.3194 22.3194L86.3192 22.5422ZM88.1975 28.1999V15.0376H92.6402V18.1382C93.1 17.0125 93.7278 16.1631 94.5174 15.5984C95.3123 15.0334 96.2731 14.7532 97.4021 14.7532C97.5877 14.7532 97.7763 14.7574 97.966 14.7714C98.1557 14.7847 98.3454 14.8071 98.5393 14.8283L98.0887 19.0546C97.8083 18.957 97.5287 18.8901 97.2526 18.8452C96.9825 18.8016 96.7155 18.7794 96.463 18.7794C95.3166 18.7794 94.432 19.1257 93.8093 19.8155C93.1907 20.5053 92.8792 21.4876 92.8792 22.7556V28.1999H88.1975ZM99.5559 28.1999V15.0376H104.278V28.1999H99.5559ZM107.055 28.1999V8H111.682V20.7846L116.54 15.0376H122.386L116.377 21.3721L122.927 28.2001H116.725L111.682 22.3514V28.2001L107.055 28.1999ZM132.065 21.6563C132.065 20.6739 131.812 19.8998 131.311 19.3348C130.81 18.7699 130.129 18.4896 129.275 18.4896C128.408 18.4896 127.726 18.7701 127.231 19.3348C126.729 19.8996 126.481 20.6739 126.481 21.6563C126.481 22.6398 126.729 23.4099 127.221 23.9696C127.718 24.5303 128.4 24.8108 129.275 24.8108C130.137 24.8108 130.819 24.5303 131.315 23.9696C131.816 23.4097 132.065 22.6396 132.065 21.6563ZM136.747 21.6563C136.747 22.6043 136.557 23.5033 136.182 24.3525C135.808 25.2069 135.266 25.972 134.553 26.6475C133.826 27.324 133.018 27.8401 132.124 28.1867C131.23 28.5341 130.277 28.7078 129.275 28.7078C128.251 28.7078 127.294 28.5341 126.396 28.1867C125.502 27.8401 124.703 27.324 123.999 26.6475C123.29 25.9892 122.752 25.2283 122.382 24.3749C122.012 23.5163 121.827 22.6131 121.827 21.6563C121.827 20.6911 122.012 19.784 122.378 18.9346C122.743 18.0801 123.28 17.315 123.999 16.6396C124.694 15.972 125.488 15.4652 126.381 15.1268C127.28 14.7884 128.242 14.6198 129.275 14.6198C130.304 14.6198 131.266 14.7884 132.156 15.1268C133.05 15.4652 133.844 15.972 134.553 16.6396C135.274 17.3243 135.821 18.0933 136.191 18.9478C136.561 19.7972 136.747 20.7003 136.747 21.6563ZM142.639 28.1999L136.634 15.0376H141.658L143.933 20.8518C143.96 20.9097 143.992 20.985 144.028 21.0702C144.318 21.8353 144.498 22.4489 144.571 22.911C144.633 22.4843 144.804 21.9154 145.085 21.2032C145.148 21.0477 145.193 20.928 145.216 20.8516L147.491 15.0374H152.397L146.326 28.1996L142.639 28.1999Z" fill="#074E2F"/>
<path fill-rule="evenodd" clip-rule="evenodd" d="M99.5567 8.03279H104.279V12.3747H99.5567V8.03279Z" fill="#074E2F"/>
</svg>
